<svg xmlns="http://www.w3.org/2000/svg" viewBox="0 0 500 350"><defs><style>.cls-1{fill:#fff;}.cls-2{fill:#6766ae;}.cls-3{fill:#7472b1;}.cls-4{fill:#8a86bd;}.cls-5{fill:#3c779d;}.cls-6{fill:#414141;}.cls-7{fill:#3a7a93;}.cls-8{fill:#316f95;}.cls-9{fill:#38769d;}.cls-10{fill:#427797;}.cls-11{fill:#367394;}.cls-12{fill:#346e95;}.cls-13{fill:#6d6e71;}</style></defs><g id="Layer_5" data-name="Layer 5"><path class="cls-1" d="M231.21,178a26.9,26.9,0,0,1,5.37,5.81A16.8,16.8,0,0,0,231.21,178Z" transform="translate(4.5 -0.67)"/><path class="cls-1" d="M-4.5.67v350h500V.67Z" transform="translate(4.5 -0.67)"/></g><g id="Layer_7" data-name="Layer 7"><path class="cls-2" d="M126.55,222.86h12l4.91,20.07h.42l11.55-20.07h12l-5.88,35.43h-9.41l3.39-20.48h-.27L144,258h-5.68l-4.49-20.34h-.28l-3.46,20.62h-9.41Z" transform="translate(4.5 -0.67)"/><path class="cls-2" d="M173.53,258.7a10.2,10.2,0,0,1-4.33-.84,5.25,5.25,0,0,1-2.63-2.56,7.17,7.17,0,0,1-.37-4.35,9.51,9.51,0,0,1,1.36-3.71,8.71,8.71,0,0,1,2.49-2.53,11.75,11.75,0,0,1,3.35-1.51,19.64,19.64,0,0,1,3.94-.69,35.32,35.32,0,0,0,3.64-.43,5.85,5.85,0,0,0,2.1-.71,1.77,1.77,0,0,0,.83-1.21v-.07a1.58,1.58,0,0,0-.55-1.59,3,3,0,0,0-1.94-.55,4.36,4.36,0,0,0-2.33.59,3,3,0,0,0-1.34,1.83H169a10.47,10.47,0,0,1,2.28-4.47,12.06,12.06,0,0,1,4.58-3.29,17.27,17.27,0,0,1,6.84-1.24,17,17,0,0,1,5,.67,10.08,10.08,0,0,1,3.56,1.85,6.53,6.53,0,0,1,2,2.77,6.77,6.77,0,0,1,.27,3.43l-3.05,18.2h-8.92l.62-3.74h-.21a10.09,10.09,0,0,1-2.32,2.41,9,9,0,0,1-2.81,1.33A12.5,12.5,0,0,1,173.53,258.7Zm4.15-6a5.23,5.23,0,0,0,2.11-.45,5,5,0,0,0,1.78-1.29,4,4,0,0,0,1-2.06l.35-2.22a6.83,6.83,0,0,1-.84.29c-.3.09-.62.17-.95.25s-.67.16-1,.23l-1.11.2a6.61,6.61,0,0,0-1.92.57,3.29,3.29,0,0,0-1.21,1,2.65,2.65,0,0,0-.54,1.25,1.8,1.8,0,0,0,.51,1.69A2.75,2.75,0,0,0,177.68,252.68Z" transform="translate(4.5 -0.67)"/><path class="cls-2" d="M195.05,258.29l4.42-26.57h9.07l-.83,5.05H208a9.65,9.65,0,0,1,3.48-3.94,9.09,9.09,0,0,1,5-1.46,6.94,6.94,0,0,1,4.56,1.48,4.88,4.88,0,0,1,1.8,3.92h.28a8.5,8.5,0,0,1,3.51-3.92,10.27,10.27,0,0,1,5.41-1.48,7,7,0,0,1,5.77,2.46q2,2.46,1.29,6.54l-3,17.92H226.6l2.63-15.5a3.65,3.65,0,0,0-.49-2.74,2.56,2.56,0,0,0-2.21-1,3.41,3.41,0,0,0-2.48,1,4.56,4.56,0,0,0-1.26,2.74l-2.63,15.5H211l2.63-15.5a3.65,3.65,0,0,0-.49-2.74,2.56,2.56,0,0,0-2.21-1,3.49,3.49,0,0,0-1.76.45,3.62,3.62,0,0,0-1.29,1.29,5.44,5.44,0,0,0-.69,2l-2.63,15.5Z" transform="translate(4.5 -0.67)"/><path class="cls-2" d="M248.11,258.7a10.23,10.23,0,0,1-4.33-.84,5.29,5.29,0,0,1-2.63-2.56,7.17,7.17,0,0,1-.37-4.35,9.52,9.52,0,0,1,1.37-3.71,8.71,8.71,0,0,1,2.49-2.53A11.69,11.69,0,0,1,248,243.2a19.77,19.77,0,0,1,3.94-.69,35.22,35.22,0,0,0,3.65-.43,5.86,5.86,0,0,0,2.09-.71,1.77,1.77,0,0,0,.83-1.21v-.07a1.56,1.56,0,0,0-.54-1.59A3.08,3.08,0,0,0,256,238a4.33,4.33,0,0,0-2.32.59,3,3,0,0,0-1.35,1.83h-8.78a10.56,10.56,0,0,1,2.27-4.47,12.1,12.1,0,0,1,4.59-3.29,17.27,17.27,0,0,1,6.84-1.24,17,17,0,0,1,5,.67,10,10,0,0,1,3.55,1.85,6.44,6.44,0,0,1,2,2.77,6.55,6.55,0,0,1,.27,3.43l-3,18.2h-8.93l.62-3.74h-.2a10.12,10.12,0,0,1-2.33,2.41,8.91,8.91,0,0,1-2.8,1.33A12.52,12.52,0,0,1,248.11,258.7Zm4.16-6a5.3,5.3,0,0,0,2.11-.45,5.06,5.06,0,0,0,1.78-1.29,4.18,4.18,0,0,0,.95-2.06l.35-2.22a8.24,8.24,0,0,1-.84.29l-1,.25-1,.23-1.12.2a6.61,6.61,0,0,0-1.92.57,3.37,3.37,0,0,0-1.21,1,2.65,2.65,0,0,0-.54,1.25,1.8,1.8,0,0,0,.51,1.69A2.79,2.79,0,0,0,252.27,252.68Z" transform="translate(4.5 -0.67)"/><path class="cls-3" d="M304.4,234.38h-5.33a7.42,7.42,0,0,0-.62-3,6.49,6.49,0,0,0-1.66-2.23,7.45,7.45,0,0,0-2.44-1.39,9.44,9.44,0,0,0-3-.46,11.55,11.55,0,0,0-5.89,1.59,13.87,13.87,0,0,0-4.68,4.63,19.51,19.51,0,0,0-2.64,7.42,15.82,15.82,0,0,0,.16,7.14,8,8,0,0,0,3,4.38,8.57,8.57,0,0,0,5,1.47,12.9,12.9,0,0,0,3.4-.45,11.59,11.59,0,0,0,3.07-1.36,11.25,11.25,0,0,0,2.52-2.21,10.08,10.08,0,0,0,1.72-3h5.38a18.22,18.22,0,0,1-2.46,4.81,16.69,16.69,0,0,1-3.72,3.78,17.39,17.39,0,0,1-4.7,2.45,17,17,0,0,1-5.42.86,13.85,13.85,0,0,1-8-2.24,12.18,12.18,0,0,1-4.72-6.39,20.36,20.36,0,0,1-.49-9.89,24.32,24.32,0,0,1,3.64-9.6,18.62,18.62,0,0,1,6.57-6.13,17.13,17.13,0,0,1,8.41-2.14,16.24,16.24,0,0,1,5.22.8,11.63,11.63,0,0,1,4.08,2.36,10.4,10.4,0,0,1,2.67,3.77A13,13,0,0,1,304.4,234.38Z" transform="translate(4.5 -0.67)"/><path class="cls-3" d="M314.1,258.88a9.74,9.74,0,0,1-4.41-.95,5.94,5.94,0,0,1-2.77-2.74,7.17,7.17,0,0,1-.48-4.41,8.46,8.46,0,0,1,1.5-3.7,8.28,8.28,0,0,1,2.72-2.31,14.26,14.26,0,0,1,3.49-1.29,32.92,32.92,0,0,1,3.81-.64l3.93-.46a6.56,6.56,0,0,0,2.27-.61,1.85,1.85,0,0,0,.93-1.33v-.12a3.65,3.65,0,0,0-4.16-4.76,7.77,7.77,0,0,0-4.35,1.15,7.87,7.87,0,0,0-2.56,2.55l-4.66-1.11a11.45,11.45,0,0,1,3.18-3.91,12.53,12.53,0,0,1,4.23-2.18,16.25,16.25,0,0,1,4.7-.69,15.41,15.41,0,0,1,3.3.38,8.51,8.51,0,0,1,3.13,1.35,5.88,5.88,0,0,1,2.1,2.81,9.36,9.36,0,0,1,.22,4.73l-2.94,17.65h-5l.62-3.63h-.2a9.43,9.43,0,0,1-1.83,2,10.33,10.33,0,0,1-2.84,1.61A11,11,0,0,1,314.1,258.88Zm1.78-4.16a8.4,8.4,0,0,0,3.81-.84,7.65,7.65,0,0,0,2.71-2.23,6.51,6.51,0,0,0,1.3-2.94l.57-3.43a3.39,3.39,0,0,1-1.15.51,15,15,0,0,1-1.84.4c-.68.11-1.34.21-2,.29l-1.61.22a14.6,14.6,0,0,0-2.86.64,6,6,0,0,0-2.21,1.29,3.78,3.78,0,0,0-1.09,2.22,2.84,2.84,0,0,0,.91,2.9A5.47,5.47,0,0,0,315.88,254.72Z" transform="translate(4.5 -0.67)"/><path class="cls-3" d="M334.17,258.29l4.42-26.57h5l-.72,4.22h.27a8.13,8.13,0,0,1,3.14-3.38,8.41,8.41,0,0,1,4.41-1.24l1.14,0c.42,0,.77.05,1,.09l-.83,4.95a9.77,9.77,0,0,0-1.09-.2,11.94,11.94,0,0,0-1.6-.11,7.45,7.45,0,0,0-6,2.9,7,7,0,0,0-1.37,3.08l-2.66,16.23Z" transform="translate(4.5 -0.67)"/><path class="cls-3" d="M363.37,258.82a11.57,11.57,0,0,1-6.47-1.68,8.88,8.88,0,0,1-3.57-4.76,14.94,14.94,0,0,1-.33-7.2,18.52,18.52,0,0,1,2.72-7.2,15,15,0,0,1,5.1-4.86,13.42,13.42,0,0,1,6.75-1.75,11.94,11.94,0,0,1,4.24.75,8.3,8.3,0,0,1,3.41,2.33,8.89,8.89,0,0,1,1.95,4.13,16.78,16.78,0,0,1-.07,6.15l-.3,1.83H355.68l.63-3.87h16.05a7.13,7.13,0,0,0-.22-3.63,4.94,4.94,0,0,0-1.89-2.5,5.81,5.81,0,0,0-3.36-.91,7.31,7.31,0,0,0-3.87,1.09,9.91,9.91,0,0,0-3,2.76A8.49,8.49,0,0,0,358.5,243l-.58,3.55a9.67,9.67,0,0,0,.15,4.67,4.43,4.43,0,0,0,2.17,2.56,8.52,8.52,0,0,0,3.9.79,8.84,8.84,0,0,0,2.77-.42,6.94,6.94,0,0,0,2.29-1.27,7.14,7.14,0,0,0,1.69-2.1l4.74.89a11.3,11.3,0,0,1-2.73,3.78,12.81,12.81,0,0,1-4.2,2.5A15.17,15.17,0,0,1,363.37,258.82Z" transform="translate(4.5 -0.67)"/><path class="cls-4" d="M313.63,152.65a47.73,47.73,0,0,0-11.25-11c-1.66-1.23-1.59-1.73.17-2.77-.92-1.55-2.08-2-3.55-1.23a19.32,19.32,0,0,0-4.16,2.74,27.55,27.55,0,0,1-11.5,6,3.62,3.62,0,0,1-3.64-.55c-.67,0-1.33,0-2,0-.91,0-1.92.18-2.34-1a5.32,5.32,0,0,1-1.9-1.84c-1.3.23-2.6.37-3.72-.59-1.77-.53-1.77-.53-1.67-2.51a2.64,2.64,0,0,1-1.54-.89c-1.53-1.31-1.57-1.55-.42-3.29,1.68-2.55,4.19-4.13,6.73-5.68.64-.39,1.59-.46,1.78-1.44-2.39-.9-2.65-1.89-.92-3.56-.09-1.53.83-2.33,2.09-2.92a17,17,0,0,1,4.27-1.48c2.67-.46,5.35-.85,8-1.33a26.25,26.25,0,0,1,8.25-.18,31.33,31.33,0,0,1,14.52,6.18c.59.44,1.09,1.18,2,.94a2.71,2.71,0,0,1,1.3-.82c1.76-.77,1.77-.78.58-2.32-4.27-5.55-9.13-10.58-13.82-15.76a30.13,30.13,0,0,0-13.6-8.27c-.92-.3-1.55-.51-1.15.91a11.32,11.32,0,0,1,.32,2.79c.11,4-1.8,8.1-6.42,9.16a18.29,18.29,0,0,1-9.26-.54,67,67,0,0,1-29.38-17.79c-2.35-2.37-4.16-2.41-6.81-1.38-5.32,2.07-10,4.81-12.13,10.5a52.77,52.77,0,0,0-2.62,9.63c-.89,5.06-1.32,10.18-1.78,15.29,6.54.39,12.1,2.66,16,8.05.07-.43.12-.87.19-1.3A24.09,24.09,0,0,0,224,128.29a24.09,24.09,0,0,1,10.25,6.15c.29-2,.59-4,.85-6.05a21.84,21.84,0,0,1,.42-2.79c.15-.54.5-1,1.11-.89s.8.6.81,1.17c0,.31-.05.62-.08.93-.21,2.13-.58,4.24-.86,6.36-.15,1.09-.33,2.23.47,3.15a62.45,62.45,0,0,1,4.75,6.78,5.44,5.44,0,0,1,1.46,1.6,33.73,33.73,0,0,1,3.75,7.38,38.63,38.63,0,0,1,1.47,20A90,90,0,0,1,245.12,184a1.64,1.64,0,0,0,.52,1.1,46,46,0,0,0,6.91,6.54c3,2.24,3.28,2.23,6.45.12l.52-.34a14.32,14.32,0,0,1,11.46-2.3,27.87,27.87,0,0,0,4.64.65,19.58,19.58,0,0,0,8.13-1.19,1.33,1.33,0,0,1,1.48.05c.55.49.34,1,.09,1.57a.66.66,0,0,0,0,.46c-.25,3.31-1.72,4.94-5.06,5.87-2.77.77-5.58.36-8.37.42.17.92,1,1.15,1.66,1.48a22.66,22.66,0,0,0,10.71,2.35c3.69-.1,7.38,0,10.88,1.43.61-.11,1.23-.21,1.84-.33,7.35-1.44,13.56-4.72,17.83-11.09a30.25,30.25,0,0,0,4.5-13C320.56,168.68,318.88,160.27,313.63,152.65Z" transform="translate(4.5 -0.67)"/><path class="cls-2" d="M302.55,138.89c-2.33-1.62-2.34-1.64-4.6-.16a28.56,28.56,0,0,0-3.42,2.43c-3.5,3.1-7.68,4.71-12.1,5.85-1.19.31-2.32.37-2.73-1.18a1.91,1.91,0,0,1,1.7-1.58,26.81,26.81,0,0,0,11.82-5.73,42.44,42.44,0,0,1,9.5-5.69c1-.49,1.95-.72,2.49.52s-.34,1.69-1.25,2.11l-.42.21c0,.57.53.6.84.8a45.31,45.31,0,0,1,13.7,12.89c1.91,2.78,4.67,3.68,7.91,3.38a2.17,2.17,0,0,0,2.22-2.46,37.9,37.9,0,0,0-4.14-16.55c-6.16-12.85-15.31-23.32-26.29-32.23-3.35-2.72-7.46-4.13-11.39-5.8-2.49-1.06-5.05-2-7-4-4.34-4.71-4.78-10.21-3.33-16.09a36,36,0,0,1,1.38-4,1.38,1.38,0,0,1,2-.91c.93.4,1,1.17.63,2.09-1.46,3.41-2.34,6.93-1.65,10.66a10.74,10.74,0,0,0,6.41,8.47c3.24,1.43,6.5,2.82,9.72,4.29,5,2.28,8.84,6.07,12.67,9.84,8.4,8.25,15.55,17.43,20.26,28.33a39.34,39.34,0,0,1,3.57,15.28c0,4.26-2.28,6.41-6.58,6.1-.92-.07-1.84-.24-2.91-.39.2.54.37,1,.58,1.53,8.83,20.93-.44,45.61-20.71,55.07-1,.49-2.41,1.59-3.21-.13s.87-1.91,1.89-2.42c13.23-6.58,20.42-17.36,22.23-31.89.05-.46.15-.92.23-1.38.4.34.11.8.24,1.25.14-2.33-.15-4.61,0-6.88,0-.1,0,.24-.21.2a44.19,44.19,0,0,0-3.38-13.38A39.72,39.72,0,0,0,302.55,138.89Z" transform="translate(4.5 -0.67)"/><path class="cls-2" d="M252.79,66.64a1.38,1.38,0,0,0-1.49.91,5.36,5.36,0,0,0-.2.92A24.17,24.17,0,0,1,238,85.11a96.55,96.55,0,0,1-9.18,4c-6.4,2.46-10.37,7.07-12.49,13.5-2.43,7.33-3.36,14.94-4.24,22.54-.11.9-.19,1.81-.29,2.71q1.48-.13,2.91-.18A169.86,169.86,0,0,1,218,107.13c1.86-8,6.16-13.76,14.25-16.34a47.53,47.53,0,0,0,7.43-3.25,26.94,26.94,0,0,0,14.2-18.3A4.69,4.69,0,0,0,254,68,1.35,1.35,0,0,0,252.79,66.64Z" transform="translate(4.5 -0.67)"/><path class="cls-2" d="M293.51,209.26c-.15-1.14-1-1.33-2-1.18a33.19,33.19,0,0,0-6.79,1.81c-3.44,1.29-6.66,3.25-10.44,3.56.2.45.73.24,1,.46-1-.29-2.22,0-3.29-.46a24.39,24.39,0,0,1-11.91-4.71,14.6,14.6,0,0,0-4.07-2,54.22,54.22,0,0,1-13.67-6.85l-.09,3.41a46.62,46.62,0,0,0,10.32,5.24,41,41,0,0,1,8.25,4c7,4.28,14.22,5,21.73,1.32a31.92,31.92,0,0,1,9.35-3C292.88,210.8,293.66,210.39,293.51,209.26Z" transform="translate(4.5 -0.67)"/><path class="cls-4" d="M285.87,188.4c-.63-.85-1.41-.59-2.24-.24a17.8,17.8,0,0,1-11.2.8,16.24,16.24,0,0,0-14.92,3.36,2.34,2.34,0,0,1-3.21.06,43.58,43.58,0,0,1-9-8.32,1.87,1.87,0,0,0-.53-1.11,2.45,2.45,0,0,1-.42-3.11,27.19,27.19,0,0,0,1.32-3.84c3.08-10.61,2.68-21-2.19-31-.46-.65-.82-1.36-1.34-2a39.77,39.77,0,0,0-4.9-7,2.25,2.25,0,0,1-.37-2.05c.34-2.58.68-5.16,1-7.73.16-1.06,0-2-1.19-2.13s-1.58.73-1.72,1.77c-.31,2.53-.6,5.07-1,7.59l-.09.61c5,4.86,7.81,11.74,9.38,19.21a25.78,25.78,0,0,1,1.1,13.67,25.67,25.67,0,0,1-.48,3.94,25.67,25.67,0,0,0,.48-3.94q-.18.83-.42,1.65c-.06,5.61-1.47,11.35-1.25,17l.36.43a41.59,41.59,0,0,0,8.41,7.92c3.81,2.68,5,2.7,8.78,0a12.59,12.59,0,0,1,10.49-2.32,24.41,24.41,0,0,0,14.59-.91C286,190,286.57,189.33,285.87,188.4Z" transform="translate(4.5 -0.67)"/><path class="cls-4" d="M236.88,141.06a.61.61,0,0,0,.07.1c-.18-.46-.37-.9-.56-1.33C236.55,140.24,236.71,140.65,236.88,141.06Z" transform="translate(4.5 -0.67)"/><path class="cls-4" d="M236.37,139.79l0,0,0,0Z" transform="translate(4.5 -0.67)"/><path class="cls-4" d="M273.7,125.08c-.82-1.2-.32-2,.78-2.66,2.83-1.78,6-2.24,9.22-2.76,4.17-.67,8.32-1.49,12.58-.94,6.32.81,11.64,3.77,16.59,7.57,2.27,1.75,4.53,3.51,6.81,5.25.84.64,1.37,1.42.63,2.37s-1.62.58-2.44-.09c-3-2.45-6.08-4.74-9.21-7-6.67-4.76-14-6.51-22.05-4.75-1.62.36-3.28.59-4.92.83a14.25,14.25,0,0,0-5.83,2.09A1.72,1.72,0,0,1,273.7,125.08Z" transform="translate(4.5 -0.67)"/><path class="cls-4" d="M271.89,197a19.9,19.9,0,0,0,11.22,3.32,52.12,52.12,0,0,1,10,.73c.83.15,1.66.32,2.05,1.21,0,1.4-.61,2.05-2,1.76a44.62,44.62,0,0,0-9.92-.82,24,24,0,0,1-13.24-3.93c-.92-.57-1.91-1.24-1.15-2.45s1.77-.69,2.67,0A2.05,2.05,0,0,0,271.89,197Z" transform="translate(4.5 -0.67)"/><path class="cls-4" d="M266.53,139.05c-1.81-.33-2.18-1.08-1.27-2.69a17.52,17.52,0,0,1,6.39-6c1-.6,2-1.13,3-1.69,2-.79,4.06-1.57,6.09-2.37,1-.37,1.82-.26,2.17.8s-.25,1.61-1.25,1.94a37.2,37.2,0,0,0-9.32,4.3,13.08,13.08,0,0,0-4.73,4.87A1.69,1.69,0,0,1,266.53,139.05Z" transform="translate(4.5 -0.67)"/><path class="cls-4" d="M269.74,142.45a1.47,1.47,0,0,1-1.92-.43c-.58-.78-.25-1.44.25-2.08a62.13,62.13,0,0,1,11.63-7.31l1.28-.58c1-.47,1.89-.48,2.35.64s-.25,1.62-1.17,2a52.69,52.69,0,0,0-8.58,4.8A29,29,0,0,0,269.74,142.45Z" transform="translate(4.5 -0.67)"/><path class="cls-4" d="M275.36,144.88a1.66,1.66,0,0,1-1.9-1.84,2.37,2.37,0,0,1,1.11-1,83.53,83.53,0,0,0,10.49-5.15c.92-.49,1.91-1,2.58.22s-.29,1.85-1.25,2.37A109.47,109.47,0,0,1,275.36,144.88Z" transform="translate(4.5 -0.67)"/><path class="cls-2" d="M322.59,170.69l.14-1H323v7.8h-.3l-.11-1.36C322.6,174.31,322.6,172.5,322.59,170.69Z" transform="translate(4.5 -0.67)"/><path class="cls-4" d="M274.29,213.45l2.07.47c-1.89.46-3.3-.28-4.73-.19,0,0,.2-.22.36-.28Z" transform="translate(4.5 -0.67)"/><path class="cls-4" d="M257.77,144.6a28.43,28.43,0,0,1-10-1.74c-1-.36-2.08-.85-1.59-2.19s1.54-.92,2.51-.57a24.34,24.34,0,0,0,13.51,1.15c1-.21,1.84,0,2.09,1.05s-.47,1.6-1.46,1.8A21.66,21.66,0,0,1,257.77,144.6Z" transform="translate(4.5 -0.67)"/><path class="cls-4" d="M243.35,144.28A2.34,2.34,0,0,0,242.1,143a5.56,5.56,0,0,0,1,1.87C243.12,144.67,243.08,144.4,243.35,144.28Z" transform="translate(4.5 -0.67)"/><path class="cls-2" d="M219.46,136.38a1.79,1.79,0,0,0-1.76-1.91c-.2.23-.47.2-.73.2h-8.38c-.26,0-.53,0-.72-.22s-.2-.53-.22-.81a8.76,8.76,0,0,0-17.44,0c0,.35.1.79-.46.86-.12.06-.25.19-.38.19h-8.83c-.13,0-.26-.12-.39-.18a1.84,1.84,0,0,0-1.77,2c0,2.44,0,4.88,0,7.33a1.86,1.86,0,0,0,1.56,2c.35-.32.78-.18,1.18-.18h35.63c.4,0,.83-.14,1.18.18a1.82,1.82,0,0,0,1.55-1.88Q219.55,140.15,219.46,136.38Zm-20.62,2.7a4.76,4.76,0,0,1-4.6-4.69,4.69,4.69,0,1,1,9.37.05A4.77,4.77,0,0,1,198.84,139.08Z" transform="translate(4.5 -0.67)"/><path class="cls-2" d="M185.26,211.75a6.57,6.57,0,0,1,1.65-1.79c.64-.54.5-.85,0-1.38q-7-7-14.06-14.05c-3.53-3.53-7-7.08-10.61-10.56a2.61,2.61,0,0,1-.8-2.4,10.81,10.81,0,0,1,1.4-4.21c2.35-3.88,5.45-6.86,10-8.09a3.81,3.81,0,0,1,4.17,1.15c7.94,8.07,16,16,24,24.06.59.59.94.68,1.47,0a10,10,0,0,1,1.26-1.26,1.56,1.56,0,0,1,2.29-.18,1.65,1.65,0,0,1-.14,2.39q-3.25,3.28-6.55,6.56c-1.35,1.35-1.35,1.34,0,2.71,3.48,3.47,7,6.92,10.41,10.44.75.77,1.15.67,1.8,0,1.22-1.31,2.5-2.55,3.78-3.8,1-1,1.85-.86,2.64.31a.85.85,0,0,0,0,1.09c-.05.45-.4.7-.68,1q-5.57,5.56-11.14,11.13a3.58,3.58,0,0,1-1,.74,1.37,1.37,0,0,1-1.78-.51,1.47,1.47,0,0,1,.18-2c1.38-1.41,2.76-2.81,4.19-4.17.5-.49.58-.76,0-1.3q-5.72-5.62-11.34-11.35c-.64-.65-.92-.49-1.45.06-2.34,2.39-4.72,4.75-7.1,7.11-1,1-1.74.93-2.59-.09ZM162.94,181.2a2.25,2.25,0,0,0,.85,2.14c1,.92,2,1.93,2.93,2.9q10.58,10.57,21.14,21.17c.67.68,1,.65,1.64,0,.75-.87,1.61-1.65,2.43-2.46,1.7-1.68,1.69-1.66-.11-3.28-.4-.36-.63-.36-1,0-.77.81-1.59,1.57-2.35,2.38-.36.38-.6.43-1,0-1-1.09-2.06-2.13-3.1-3.2a1,1,0,0,0,.63-1.18l6.18-6.29c1.71-1.73,1.71-1.72,3.4,0l.55.56c1.72,1.73,1.72,1.73,0,3.48s-1.69,1.69.09,3.33c.41.38.62.33,1,0,1.17-1.2,2.33-2.42,3.56-3.54.68-.62.69-1,0-1.63q-11.69-11.6-23.31-23.27c-1.91-1.91-2.42-2-5-.91a9.23,9.23,0,0,0-1.29.66,16.19,16.19,0,0,0-7.05,8.35C162.62,180.49,163.06,180.92,162.94,181.2Zm42.18,32.69c-.22-.89-.14-1.94-1.51-1.91-.22,0-.33-.24-.42-.46-.5-1.27-.5-1.26-1.86-1.3Zm.71,0c-.21,0-.45.14-.36.31a2.17,2.17,0,0,0,1,1.07c.17.07.31-.29.23-.52C206.56,214.28,206.41,213.83,205.83,213.84Zm-6.26-6.25c-.16-.38-.25-.87-.82-.9-.23,0-.56.09-.42.33a3.06,3.06,0,0,0,.92,1C199.44,208.19,199.56,207.85,199.57,207.59Zm8.94,8.91c-.18-.3-.21-.8-.77-.87-.22,0-.54,0-.48.29a1.63,1.63,0,0,0,.92,1C208.35,217,208.49,216.79,208.51,216.5Zm-7.5-6.79c.23,0,.37-.06.34-.24-.08-.45-.21-.88-.74-1-.22-.05-.53,0-.5.26C200.16,209.29,200.76,209.38,201,209.71Z" transform="translate(4.5 -0.67)"/><path class="cls-3" d="M233.12,212.48a8.28,8.28,0,0,1-7.14,7.14c-.31-.32-.7-.2-1.06-.2H218.8a2.24,2.24,0,0,1-1.3-.22l3.33-3.37c1.39.5,2.79.11,4.49.24a2.62,2.62,0,0,0-.39-.21l-4.1,0a13.51,13.51,0,0,1,3.42-.13c3.15,0,4.94-1.78,4.94-4.92q0-33.71,0-67.41c0-3.07-1.74-4.84-4.83-4.89-.59,0-.87-.11-.84-.79a7.42,7.42,0,0,0-.2-2.77c-.13-.39.05-.48.43-.52a8.54,8.54,0,0,1,9.36,7.21c-.33.34-.19.78-.19,1.17q0,34.26,0,68.53C232.92,211.7,232.78,212.13,233.12,212.48ZM229.5,142.3h-.08v69.22h.08Z" transform="translate(4.5 -0.67)"/><path class="cls-3" d="M165.24,192.77a34.32,34.32,0,0,1,3.08,3.07v15.67c.18-2.56.18-5.13.18-7.69l0-7.71a1.78,1.78,0,0,1,.13,1.09q0,6.48,0,13c0,3.51,1,4.82,4.4,5.64-.15,0-.41,0-.42.08-.1.36.21.17.31.17h8.37a.69.69,0,0,0,.61-.21c1.73,1.86,3.77,2.74,6.33,2a7.4,7.4,0,0,0,2.5-1.57c2.73-.41,5.47-.1,8.21-.2.43,0,.89.14,1.28-.17a10.07,10.07,0,0,1,1.21,1.14c.34.42,1.27.75.91,1.29a2.53,2.53,0,0,1-2.17,1.49c-8.92,0-17.85,0-26.77,0-4.59,0-8.29-3.17-8.7-7.32.36-.39.2-.86.2-1.28,0-5.74,0-11.47,0-17.2C165,193.58,164.76,193.09,165.24,192.77Z" transform="translate(4.5 -0.67)"/><path class="cls-3" d="M168.27,165.34a34.66,34.66,0,0,1-3.56-3.61c.35-.29.22-.69.22-1q0-9,0-18c0-.36.12-.75-.19-1.06a8.56,8.56,0,0,1,9.38-7.19c.4.05.53.16.4.54a8.08,8.08,0,0,0-.2,2.77c0,.57-.14.75-.74.77-3.35.13-4.92,1.8-4.92,5.14v21.68a1.52,1.52,0,0,1,0,.21l-.11,0V142.29h-.25Z" transform="translate(4.5 -0.67)"/><path class="cls-2" d="M174.57,161.21a.81.81,0,0,1-.45-1.06,2.14,2.14,0,0,0,0-2c-.06-.51-.19-1,.44-1.32a3.43,3.43,0,0,0,2.44-.06h-2.29a2.9,2.9,0,0,1,1.72-.14c.71,0,.92-.2.85-.87a5.78,5.78,0,0,1,0-1.44c.06-.45.26-.86.83-.85a5.11,5.11,0,0,0,3.12,0,.57.57,0,0,1,.63.44,4.62,4.62,0,0,0,.06,2.63V154.1c-.08,1.75.28,3.06,2.52,2.55a.63.63,0,0,1,.68.48c.17,1.32.49,2.66-.19,4h-2.66v.13l2.17.1c-.74.31-1.78-.26-2.21.28s-.21,1.46-.28,2.22l-.1-2.25h-.14v2.72a5.64,5.64,0,0,1-3.92.17c-.61-.12-.54-.87-.55-1.43,0-1.58,0-1.57-1.53-1.6-.33,0-.67.08-1-.14H177A4.15,4.15,0,0,0,174.57,161.21Z" transform="translate(4.5 -0.67)"/><path class="cls-2" d="M164.91,171.1c-.83.91-1.67,1.8-2.46,2.74-.34.41-.56.5-.94.06s-.78-.79-1.18-1.19c-1.15-1.15-1.19-1.18-.19-2.45.49-.62,0-.79-.31-1-2.83-2.85-5.66-5.7-8.52-8.52-1.25-1.24-1.08-2.94-1.58-4.42a.31.31,0,0,1,.1-.28c.21-.07.33.1.46.23l2.85,2.84c2.76,2.76,5.53,5.51,8.27,8.3.57.58,1,.78,1.59.08s1.11-.65,1.67.09a19.15,19.15,0,0,0,1.44,1.55c-.43.31-.07.8-.25,1.18h0C165.34,170.3,165,170.51,164.91,171.1Zm.34-2.14a3,3,0,0,0-.24.53c0,.21.14.24.29.17a.33.33,0,0,0,.22-.44C165.48,169.13,165.37,169.08,165.25,169Z" transform="translate(4.5 -0.67)"/><path class="cls-2" d="M211.17,174.91h-10.5a5.06,5.06,0,0,1-.78,0,1,1,0,0,1-.91-1.08.92.92,0,0,1,.94-.92c.71,0,1.41,0,2.12,0h20.33c.67,0,1.11.31,1.13,1s-.46,1.05-1.16,1.06H211.17Z" transform="translate(4.5 -0.67)"/><path class="cls-2" d="M199.21,181c.26-.48.71-.46,1.16-.46h21.79c.72,0,1.32.2,1.34,1s-.63,1.05-1.39,1.05H200.33c-.45,0-.92,0-1.14-.48A.86.86,0,0,0,199.21,181Z" transform="translate(4.5 -0.67)"/><path class="cls-2" d="M191.33,154.12c.37-.4.67-1,1.35-.45-.1.5.23.92.23,1.44,0,8,0,16.08,0,24.12,0,.38.15.84-.33,1.09l-1-1a7.41,7.41,0,0,0,0-2.53q0-10.68,0-21.35C191.54,155,191.71,154.5,191.33,154.12Z" transform="translate(4.5 -0.67)"/><path class="cls-2" d="M222.85,157.72c.94.7.94,1.07,0,1.76-.86-.5-1.79-.21-2.69-.21q-9.65,0-19.29,0c-.42,0-.9-.17-1.27.21-.88-.71-.88-1,0-1.76.31.32.71.2,1.07.2h21.12C222.15,157.92,222.54,158,222.85,157.72Z" transform="translate(4.5 -0.67)"/><path class="cls-2" d="M199.17,165.75a.48.48,0,0,1,.44-.4c.25.24.56.17.85.17h21.22c.33,0,.68.1.94-.21,1,.41,1.15.82.44,1.73-.36-.3-.79-.17-1.18-.17-6.92,0-13.83,0-20.74,0C200.16,166.9,199.46,166.77,199.17,165.75Z" transform="translate(4.5 -0.67)"/><path class="cls-3" d="M233.12,212.48c-.34-.35-.2-.78-.2-1.17q0-34.27,0-68.53c0-.39-.14-.83.19-1.17a13.11,13.11,0,0,1,.16,3q0,33,0,66.1C233.27,211.3,233.17,211.89,233.12,212.48Z" transform="translate(4.5 -0.67)"/><path class="cls-2" d="M208.78,190.07l-2.07-1.27a2.31,2.31,0,0,1,1.29-.25h13.35c-.25-.31-.48-.22-.68-.22h-19.1c-.29,0-.6-.06-.84.17-.28-.22-.23-.36.11-.37h20.8a5.26,5.26,0,0,1,.89,0,1,1,0,0,1,1,.91c0,.55-.16,1-.87,1-.22-.27-.53-.21-.82-.21H209.51A.92.92,0,0,0,208.78,190.07Z" transform="translate(4.5 -0.67)"/><path class="cls-2" d="M222.63,203.54c.58,0,.8.36.87.8a.82.82,0,0,1-.64,1c-.29-.36-.69-.23-1-.23q-7.62,0-15.23,0c-.32,0-.67-.1-.94.19a5.79,5.79,0,0,1-1.33-1.33,2.45,2.45,0,0,1,1.41-.21c5.25,0,10.5,0,15.74,0C221.86,203.75,222.3,203.91,222.63,203.54Z" transform="translate(4.5 -0.67)"/><path class="cls-2" d="M222.85,195.94c.94.69.93,1.06,0,1.77-.34-.35-.78-.2-1.17-.2-3.61,0-7.22,0-10.83,0-.42,0-.92.19-1.22-.3l.45-.86a5.86,5.86,0,0,1,2-.17h9.61C222.08,196.15,222.52,196.3,222.85,195.94Z" transform="translate(4.5 -0.67)"/><path class="cls-2" d="M191.33,154.12c.38.38.21.85.21,1.28q0,10.68,0,21.35a7.41,7.41,0,0,1,0,2.53c-.4-.23-.33-.62-.33-1V155A1.53,1.53,0,0,1,191.33,154.12Z" transform="translate(4.5 -0.67)"/><path class="cls-2" d="M199.17,165.75c.29,1,1,1.15,2,1.14,6.91,0,13.82,0,20.74,0,.39,0,.82-.13,1.18.17a1.13,1.13,0,0,1-.83.24H200.3C199.19,167.27,198.87,166.79,199.17,165.75Z" transform="translate(4.5 -0.67)"/><path class="cls-2" d="M199.6,159.48c.37-.38.85-.21,1.27-.21q9.65,0,19.29,0c.9,0,1.83-.29,2.69.21a1.86,1.86,0,0,1-1.09.14H200.58A1.73,1.73,0,0,1,199.6,159.48Z" transform="translate(4.5 -0.67)"/><path class="cls-3" d="M165.24,192.77c-.48.32-.29.81-.3,1.23,0,5.73,0,11.46,0,17.2,0,.42.16.89-.2,1.28a14.06,14.06,0,0,1-.15-1.44q0-9,0-18c0-.23-.17-.6.11-.69S165.1,192.56,165.24,192.77Z" transform="translate(4.5 -0.67)"/><path class="cls-3" d="M164.74,141.6c.31.31.19.7.19,1.06q0,9,0,18c0,.35.13.75-.22,1-.26-.38-.13-.8-.13-1.19q0-8.58,0-17.17C164.59,142.78,164.69,142.19,164.74,141.6Z" transform="translate(4.5 -0.67)"/><path class="cls-2" d="M179.46,142.48c.35-.32.78-.18,1.17-.18q17.82,0,35.64,0c.4,0,.83-.14,1.18.18-.33,0-.66.07-1,.07h-36C180.12,142.55,179.79,142.5,179.46,142.48Z" transform="translate(4.5 -0.67)"/><path class="cls-2" d="M205.65,205.3c.27-.29.62-.19.94-.19q7.62,0,15.23,0c.35,0,.75-.13,1,.23-.26.22-.57.15-.86.15H206.47C206.19,205.48,205.87,205.6,205.65,205.3Z" transform="translate(4.5 -0.67)"/><path class="cls-2" d="M192.55,180.32c.48-.25.33-.71.33-1.09,0-8,0-16.08,0-24.12,0-.52-.33-.94-.23-1.44.55.19.52.66.52,1.1q0,12.71,0,25.4c0,.21,0,.57-.11.59C192.8,180.83,192.71,180.5,192.55,180.32Z" transform="translate(4.5 -0.67)"/><path class="cls-2" d="M200.73,188.51c.24-.23.55-.17.84-.17h19.1c.2,0,.43-.09.68.22H208a2.31,2.31,0,0,0-1.29.25,6.25,6.25,0,0,0-4.64.49C201.3,189.72,201.17,188.79,200.73,188.51Z" transform="translate(4.5 -0.67)"/><path class="cls-2" d="M222.85,195.94c-.33.36-.77.21-1.16.21h-9.61a5.86,5.86,0,0,0-2,.17.46.46,0,0,1,.54-.53l12,0C222.72,195.85,222.78,195.91,222.85,195.94Z" transform="translate(4.5 -0.67)"/><path class="cls-3" d="M168.27,165.34V142.29h.25v23.19C168.36,165.57,168.31,165.46,168.27,165.34Z" transform="translate(4.5 -0.67)"/><path class="cls-2" d="M222.85,157.72c-.31.32-.7.2-1.06.2H200.67c-.36,0-.76.12-1.07-.2.33,0,.66-.1,1-.1h21.49A5.1,5.1,0,0,1,222.85,157.72Z" transform="translate(4.5 -0.67)"/><path class="cls-2" d="M222.62,165.31c-.26.31-.61.21-.94.21H200.46c-.29,0-.6.07-.85-.17a8.75,8.75,0,0,1,.88-.09h21.59C222.26,165.26,222.44,165.3,222.62,165.31Z" transform="translate(4.5 -0.67)"/><path class="cls-2" d="M222.63,203.54c-.33.37-.77.21-1.16.22-5.24,0-10.49,0-15.74,0a2.45,2.45,0,0,0-1.41.21c-.1-.14-.59-.16-.17-.47.08-.06.22,0,.33,0Z" transform="translate(4.5 -0.67)"/><path class="cls-3" d="M200.25,215.89c-.39.31-.85.15-1.28.17-2.74.1-5.48-.21-8.21.2a1,1,0,0,1,1-.56h8.11C200,215.71,200.13,215.83,200.25,215.89Z" transform="translate(4.5 -0.67)"/><path class="cls-3" d="M217.5,219.2a2.24,2.24,0,0,0,1.3.22h6.12c.36,0,.75-.12,1.06.2-2.82.33-5.65.07-8.47.15-.14,0-.43.09-.38-.21C217.15,219.42,217.37,219.32,217.5,219.2Z" transform="translate(4.5 -0.67)"/><path class="cls-3" d="M168.53,196.11l0,7.71c0,2.56,0,5.13-.18,7.69V195.84Z" transform="translate(4.5 -0.67)"/><path class="cls-2" d="M209.63,197.19c.3.49.8.3,1.22.3,3.61,0,7.22,0,10.83,0,.39,0,.83-.15,1.17.2a19.37,19.37,0,0,1-3.65.1c-3.11,0-6.22,0-9.32,0-.2,0-.5.14-.59-.12S209.46,197.32,209.63,197.19Z" transform="translate(4.5 -0.67)"/><path class="cls-2" d="M208.78,190.07a.92.92,0,0,1,.73-.17H221.8c.29,0,.6-.06.82.21C218,190.18,213.39,190.25,208.78,190.07Z" transform="translate(4.5 -0.67)"/><path class="cls-2" d="M217.7,134.47c-.2.23-.47.2-.73.2h-8.38c-.26,0-.53,0-.72-.22Z" transform="translate(4.5 -0.67)"/><path class="cls-2" d="M189.75,134.46c-.12.06-.25.19-.38.19h-8.83c-.13,0-.26-.12-.39-.18Z" transform="translate(4.5 -0.67)"/><path class="cls-3" d="M181.93,215.85a.69.69,0,0,1-.61.21H173c-.1,0-.41.19-.31-.17,0-.06.27,0,.42-.08C176,215.74,179,215.65,181.93,215.85Z" transform="translate(4.5 -0.67)"/><path class="cls-2" d="M181.25,153.47a5.11,5.11,0,0,1-3.12,0A15.49,15.49,0,0,1,181.25,153.47Z" transform="translate(4.5 -0.67)"/><path class="cls-2" d="M184.46,161.31l-2.17-.1v-.13H185A.46.46,0,0,1,184.46,161.31Z" transform="translate(4.5 -0.67)"/><path class="cls-2" d="M181.73,164.28v-2.72h.14l.1,2.25A.42.42,0,0,1,181.73,164.28Z" transform="translate(4.5 -0.67)"/><path class="cls-2" d="M181.94,154.1v2.44a4.62,4.62,0,0,1-.06-2.63A.15.15,0,0,1,181.94,154.1Z" transform="translate(4.5 -0.67)"/><path class="cls-2" d="M174.57,161.21a4.15,4.15,0,0,1,2.39.07h-2.31Z" transform="translate(4.5 -0.67)"/><path class="cls-2" d="M174.71,156.77H177a3.43,3.43,0,0,1-2.44.06A.11.11,0,0,1,174.71,156.77Z" transform="translate(4.5 -0.67)"/><path class="cls-5" d="M165.86,170.26c.18-.38-.18-.87.25-1.18C167.13,169.71,166.36,170,165.86,170.26Z" transform="translate(4.5 -0.67)"/><path class="cls-2" d="M174.12,158.15a2.14,2.14,0,0,1,0,2Z" transform="translate(4.5 -0.67)"/><path class="cls-6" d="M199.21,181a.86.86,0,0,1,0,1.09A.76.76,0,0,1,199.21,181Z" transform="translate(4.5 -0.67)"/><path class="cls-5" d="M164.91,171.1c0-.59.43-.8,1-.85Z" transform="translate(4.5 -0.67)"/><path class="cls-7" d="M185.26,211.75v1.52A1.23,1.23,0,0,1,185.26,211.75Z" transform="translate(4.5 -0.67)"/><path class="cls-8" d="M217.9,212.7a.85.85,0,0,1,0-1.09A1.42,1.42,0,0,1,217.9,212.7Z" transform="translate(4.5 -0.67)"/><path class="cls-2" d="M205.12,213.89l-3.79-3.67c1.36,0,1.36,0,1.86,1.3.09.22.2.47.42.46C205,212,204.9,213,205.12,213.89Z" transform="translate(4.5 -0.67)"/><path class="cls-2" d="M205.83,213.84c.58,0,.73.44.87.86.08.23-.06.59-.23.52a2.17,2.17,0,0,1-1-1.07C205.38,214,205.62,213.85,205.83,213.84Z" transform="translate(4.5 -0.67)"/><path class="cls-2" d="M199.57,207.59c0,.26-.13.6-.32.47a3.06,3.06,0,0,1-.92-1c-.14-.24.19-.35.42-.33C199.32,206.72,199.41,207.21,199.57,207.59Z" transform="translate(4.5 -0.67)"/><path class="cls-9" d="M208.51,216.5c0,.29-.16.49-.33.39a1.63,1.63,0,0,1-.92-1c-.06-.26.26-.31.48-.29C208.3,215.7,208.33,216.2,208.51,216.5Z" transform="translate(4.5 -0.67)"/><path class="cls-2" d="M201,209.71c-.25-.33-.85-.42-.9-1,0-.27.28-.31.5-.26.53.1.66.53.74,1C201.38,209.65,201.24,209.72,201,209.71Z" transform="translate(4.5 -0.67)"/><path class="cls-2" d="M184.4,200.85c-.22-.48-.22-.48.63-1.18A1,1,0,0,1,184.4,200.85Z" transform="translate(4.5 -0.67)"/><path class="cls-10" d="M163.17,180.32a1.32,1.32,0,0,1-.23.88C163.06,180.92,162.62,180.49,163.17,180.32Z" transform="translate(4.5 -0.67)"/><ellipse class="cls-2" cx="233.96" cy="176.23" rx="0.05" ry="48.95"/><path class="cls-3" d="M220.83,215.83l4.1,0a2.62,2.62,0,0,1,.39.21c-1.7-.13-3.1.26-4.49-.24Z" transform="translate(4.5 -0.67)"/><path class="cls-5" d="M165.25,169c.12.12.23.17.27.26a.33.33,0,0,1-.22.44c-.15.07-.32,0-.29-.17A3,3,0,0,1,165.25,169Z" transform="translate(4.5 -0.67)"/><path class="cls-4" d="M171.43,175.59c-1,1-2,1.94-3,2.89-.24.22-.48.71-.86.18-.27-.36-1-.55-.45-1.24a13.44,13.44,0,0,1,6-4.5,1.15,1.15,0,0,1,1.37.32q7.88,7.92,15.8,15.79c.57.57.52.86,0,1.39-1.65,1.58-3.27,3.21-4.86,4.85-.46.49-.8.59-1.22,0-.09-.12-.22-.21-.32-.32-.48-.51-1.25-1-1.34-1.56-.06-.41.8-1,1.24-1.45.19-.2.54-.4.22-.73s-.52,0-.73.2l-.16.16c-1.41,1.36-1.7,1.31-2.93-.31-.34-.45,0-.58.2-.8.8-.82,1.61-1.64,2.44-2.45.37-.37.69-.78.25-1.25s-.93-.18-1.32.22c-.79.79-1.62,1.55-2.36,2.38-.44.49-.76.49-1.12,0a.3.3,0,0,0-.08-.08c-1.28-1.25-1.28-1.25,0-2.56l.45-.49a.28.28,0,0,0,0-.4.32.32,0,0,0-.48-.08c-.17.14-.31.32-.49.46-.46.35-.81,1.23-1.29,1.05-.64-.23-1.09-1-1.63-1.47-.3-.28-.06-.46.12-.63.53-.52,1.08-1,1.61-1.54.53,0,.77-.22.74-.73l.42-.52c.29-.36.38-.74,0-1.08a.73.73,0,0,0-1.09.07c-.74.74-1.52,1.43-2.2,2.21-.86,1-1.39.4-2.09-.22s-.62-1.05,0-1.65c.37-.34,1.33-.73.78-1.31s-.8.52-1.25.77-.54.95-1,.62a4.8,4.8,0,0,1-1.6-1.66c-.12-.23.25-.42.43-.6.78-.8,1.55-1.6,2.36-2.36a1.07,1.07,0,0,0,.32-1.29C172.06,175.29,171.81,175.21,171.43,175.59Z" transform="translate(4.5 -0.67)"/><path class="cls-3" d="M166.11,179.35l.47.42q8.32,8.34,16.66,16.66c.42.42.41.64,0,1-1.14,1.15-1.12,1.18-2.3,0L165.7,182.24a2.35,2.35,0,0,1,.17-2.78A1.94,1.94,0,0,1,166.11,179.35Z" transform="translate(4.5 -0.67)"/><path class="cls-11" d="M171.43,175.59c.38-.38.63-.3.87.27A1.52,1.52,0,0,0,171.43,175.59Z" transform="translate(4.5 -0.67)"/><path class="cls-12" d="M177.21,182.88c0,.51-.21.76-.74.73Z" transform="translate(4.5 -0.67)"/><path class="cls-2" d="M238.39,145.81s8,14.79.56,35.39" transform="translate(4.5 -0.67)"/><path class="cls-13" d="M191,282l1.51-9h1.79l-.18,1.1h.08a3.75,3.75,0,0,1,.43-.54,2.4,2.4,0,0,1,.67-.46,2.35,2.35,0,0,1,1-.18,2.14,2.14,0,0,1,1.25.37,2.08,2.08,0,0,1,.78,1.12,4,4,0,0,1,.05,1.87,5,5,0,0,1-.65,1.85,3.47,3.47,0,0,1-1.15,1.14,2.78,2.78,0,0,1-1.41.39,1.82,1.82,0,0,1-.87-.18,1.38,1.38,0,0,1-.53-.44,1.91,1.91,0,0,1-.26-.54h-.07l-.58,3.5Zm2.74-5.72a2.64,2.64,0,0,0,0,1,1.21,1.21,0,0,0,.36.68,1,1,0,0,0,.71.24,1.31,1.31,0,0,0,.78-.24,2,2,0,0,0,.58-.69,3.56,3.56,0,0,0,.33-1,3.06,3.06,0,0,0,0-1,1.23,1.23,0,0,0-.35-.67,1,1,0,0,0-.72-.25,1.36,1.36,0,0,0-.79.24,1.8,1.8,0,0,0-.58.66A3.3,3.3,0,0,0,193.76,276.27Z" transform="translate(4.5 -0.67)"/><path class="cls-13" d="M202,279.67a3,3,0,0,1-1.66-.43,2.36,2.36,0,0,1-.92-1.2,3.55,3.55,0,0,1-.1-1.77,4.33,4.33,0,0,1,.67-1.77,3.64,3.64,0,0,1,1.3-1.17,3.74,3.74,0,0,1,1.78-.42,2.91,2.91,0,0,1,1.65.43,2.26,2.26,0,0,1,.93,1.19,3.62,3.62,0,0,1,.1,1.79,4.31,4.31,0,0,1-.68,1.75,3.58,3.58,0,0,1-3.07,1.6Zm.18-1.41A1.38,1.38,0,0,0,203,278a2.24,2.24,0,0,0,.59-.72,3.77,3.77,0,0,0,.33-1,3.06,3.06,0,0,0,0-1,1.25,1.25,0,0,0-.34-.7.94.94,0,0,0-.7-.26,1.32,1.32,0,0,0-.82.27,1.85,1.85,0,0,0-.59.72,3.22,3.22,0,0,0-.33,1,2.86,2.86,0,0,0,0,1,1.24,1.24,0,0,0,.33.7A1,1,0,0,0,202.17,278.26Z" transform="translate(4.5 -0.67)"/><path class="cls-13" d="M207.52,279.54l-.69-6.55h1.83l.28,4.4H209l1.79-4.4h1.81l.34,4.38H213l1.73-4.38h1.84l-2.87,6.55h-1.92l-.45-4.12h-.08l-1.81,4.12Z" transform="translate(4.5 -0.67)"/><path class="cls-13" d="M219.23,279.67a3.15,3.15,0,0,1-1.67-.41,2.23,2.23,0,0,1-.92-1.17,3.51,3.51,0,0,1-.09-1.79,4.44,4.44,0,0,1,.68-1.78,3.73,3.73,0,0,1,1.31-1.19,3.61,3.61,0,0,1,1.74-.42,3.14,3.14,0,0,1,1.18.21,2,2,0,0,1,.87.62,2.14,2.14,0,0,1,.48,1,4,4,0,0,1,0,1.46l-.08.5H217.2l.18-1.12h3.82a1.33,1.33,0,0,0,0-.7,1,1,0,0,0-.39-.47,1.16,1.16,0,0,0-.66-.18,1.5,1.5,0,0,0-.75.2,1.93,1.93,0,0,0-.59.51,1.77,1.77,0,0,0-.3.69l-.2,1.12a1.8,1.8,0,0,0,0,.85.89.89,0,0,0,.42.51,1.57,1.57,0,0,0,.77.17,2.12,2.12,0,0,0,.57-.08,1.45,1.45,0,0,0,.47-.26,1.28,1.28,0,0,0,.34-.42l1.66.11a2.81,2.81,0,0,1-.7,1.06,3.32,3.32,0,0,1-1.13.7A4.27,4.27,0,0,1,219.23,279.67Z" transform="translate(4.5 -0.67)"/><path class="cls-13" d="M223.45,279.54l1.09-6.55h1.76l-.2,1.15h.07a2.15,2.15,0,0,1,.76-.93,1.82,1.82,0,0,1,1-.31l.29,0,.28,0-.28,1.61a2.79,2.79,0,0,0-.34-.07l-.41,0a1.55,1.55,0,0,0-.74.17,1.47,1.47,0,0,0-.57.48,1.58,1.58,0,0,0-.31.71l-.61,3.7Z" transform="translate(4.5 -0.67)"/><path class="cls-13" d="M231,279.67a3.15,3.15,0,0,1-1.67-.41,2.19,2.19,0,0,1-.92-1.17,3.62,3.62,0,0,1-.1-1.79,4.6,4.6,0,0,1,.69-1.78,3.79,3.79,0,0,1,1.3-1.19,3.68,3.68,0,0,1,1.75-.42,3.22,3.22,0,0,1,1.18.21,2,2,0,0,1,.87.62,2.34,2.34,0,0,1,.48,1,4,4,0,0,1,0,1.46l-.08.5H229l.17-1.12H233a1.24,1.24,0,0,0,0-.7.88.88,0,0,0-.38-.47,1.16,1.16,0,0,0-.66-.18,1.5,1.5,0,0,0-.75.2,1.82,1.82,0,0,0-.59.51,1.52,1.52,0,0,0-.3.69l-.2,1.12a1.81,1.81,0,0,0,0,.85.89.89,0,0,0,.42.51,1.62,1.62,0,0,0,.77.17,2,2,0,0,0,.57-.08,1.4,1.4,0,0,0,.48-.26,1.43,1.43,0,0,0,.34-.42l1.66.11a2.93,2.93,0,0,1-.7,1.06,3.32,3.32,0,0,1-1.13.7A4.27,4.27,0,0,1,231,279.67Z" transform="translate(4.5 -0.67)"/><path class="cls-13" d="M237.64,279.65a2.14,2.14,0,0,1-1.29-.39,2.1,2.1,0,0,1-.77-1.14,4.17,4.17,0,0,1,0-1.85,4.7,4.7,0,0,1,.67-1.87,3.31,3.31,0,0,1,1.15-1.12,2.75,2.75,0,0,1,1.38-.37,1.87,1.87,0,0,1,.89.18,1.47,1.47,0,0,1,.52.46,2.2,2.2,0,0,1,.26.54h.05l.55-3.28h1.81l-1.45,8.73h-1.79l.18-1.05h-.08a3.07,3.07,0,0,1-.45.54,2.17,2.17,0,0,1-.67.44A2.19,2.19,0,0,1,237.64,279.65Zm.79-1.45a1.34,1.34,0,0,0,.79-.24,2,2,0,0,0,.59-.68,3.16,3.16,0,0,0,.34-1,2.9,2.9,0,0,0,0-1,1.19,1.19,0,0,0-.37-.66,1,1,0,0,0-.71-.24,1.28,1.28,0,0,0-.79.25,1.8,1.8,0,0,0-.57.67,3.56,3.56,0,0,0-.32,1,3.06,3.06,0,0,0,0,1,1.22,1.22,0,0,0,.34.69A1,1,0,0,0,238.43,278.2Z" transform="translate(4.5 -0.67)"/><path class="cls-13" d="M245.68,279.54l1.45-8.73h1.81l-.54,3.28h.06a3.16,3.16,0,0,1,.43-.54,2.62,2.62,0,0,1,.68-.46,2.27,2.27,0,0,1,1-.18,2.15,2.15,0,0,1,1.26.37,2.08,2.08,0,0,1,.78,1.12,4.23,4.23,0,0,1,.05,1.87,4.88,4.88,0,0,1-.66,1.85,3.38,3.38,0,0,1-1.15,1.14,2.73,2.73,0,0,1-1.41.39,1.87,1.87,0,0,1-.87-.18A1.42,1.42,0,0,1,248,279a1.71,1.71,0,0,1-.27-.54h-.09l-.17,1.05Zm2.32-3.27a2.84,2.84,0,0,0,0,1,1.2,1.2,0,0,0,.35.68,1,1,0,0,0,.71.24,1.34,1.34,0,0,0,.79-.24,1.89,1.89,0,0,0,.58-.69,3.26,3.26,0,0,0,.32-1,3.06,3.06,0,0,0,0-1,1.23,1.23,0,0,0-.35-.67,1,1,0,0,0-.72-.25,1.36,1.36,0,0,0-.79.24,1.69,1.69,0,0,0-.57.66A3.06,3.06,0,0,0,248,276.27Z" transform="translate(4.5 -0.67)"/><path class="cls-13" d="M253.77,282a3.2,3.2,0,0,1-.64-.05,3.24,3.24,0,0,1-.48-.13l.64-1.36a1.7,1.7,0,0,0,.56.1.72.72,0,0,0,.45-.13,1.18,1.18,0,0,0,.39-.43l.15-.28L253.62,273h1.84l.56,4.82h.06l2.17-4.82h2l-3.74,7.25a4.08,4.08,0,0,1-.66.93,2.77,2.77,0,0,1-.89.61A3.07,3.07,0,0,1,253.77,282Z" transform="translate(4.5 -0.67)"/><path class="cls-13" d="M264.35,270.81h2.27l1.44,5.86h.1l3.37-5.86h2.28l-1.45,8.73h-1.79l.94-5.68h-.07l-3.19,5.64H267l-1.32-5.66h-.07l-.95,5.7H262.9Z" transform="translate(4.5 -0.67)"/><path class="cls-13" d="M276.81,279.67a3.13,3.13,0,0,1-1.67-.41,2.25,2.25,0,0,1-.93-1.17,3.75,3.75,0,0,1-.09-1.79,4.45,4.45,0,0,1,.69-1.78,3.79,3.79,0,0,1,1.3-1.19,3.65,3.65,0,0,1,1.75-.42,3.13,3.13,0,0,1,1.17.21,2.05,2.05,0,0,1,.88.62,2.34,2.34,0,0,1,.48,1,4.21,4.21,0,0,1,0,1.46l-.08.5h-5.53l.18-1.12h3.82a1.24,1.24,0,0,0,0-.7.93.93,0,0,0-.38-.47,1.16,1.16,0,0,0-.66-.18,1.57,1.57,0,0,0-.76.2,1.89,1.89,0,0,0-.58.51,1.52,1.52,0,0,0-.3.69l-.21,1.12a1.8,1.8,0,0,0,0,.85.89.89,0,0,0,.42.51,1.6,1.6,0,0,0,.77.17,2.12,2.12,0,0,0,.57-.08,1.27,1.27,0,0,0,.47-.26,1.31,1.31,0,0,0,.35-.42l1.66.11a2.93,2.93,0,0,1-.7,1.06,3.42,3.42,0,0,1-1.13.7A4.27,4.27,0,0,1,276.81,279.67Z" transform="translate(4.5 -0.67)"/><path class="cls-13" d="M283.42,279.65a2.13,2.13,0,0,1-1.28-.39,2.1,2.1,0,0,1-.77-1.14,4.15,4.15,0,0,1-.05-1.85,4.86,4.86,0,0,1,.68-1.87,3.23,3.23,0,0,1,1.15-1.12,2.75,2.75,0,0,1,1.38-.37,1.87,1.87,0,0,1,.89.18,1.47,1.47,0,0,1,.52.46,1.84,1.84,0,0,1,.25.54h.06l.55-3.28h1.81l-1.45,8.73h-1.79l.18-1.05h-.08a3.58,3.58,0,0,1-.45.54,2.29,2.29,0,0,1-.67.44A2.24,2.24,0,0,1,283.42,279.65Zm.8-1.45A1.36,1.36,0,0,0,285,278a2,2,0,0,0,.59-.68,2.93,2.93,0,0,0,.33-1,2.7,2.7,0,0,0,0-1,1.19,1.19,0,0,0-.37-.66,1,1,0,0,0-.71-.24,1.28,1.28,0,0,0-.79.25,1.8,1.8,0,0,0-.57.67,3.26,3.26,0,0,0-.32,1,2.81,2.81,0,0,0,0,1,1.22,1.22,0,0,0,.34.69A1,1,0,0,0,284.22,278.2Z" transform="translate(4.5 -0.67)"/><path class="cls-13" d="M288.68,279.54l1.45-8.73h3.45a3.45,3.45,0,0,1,1.63.35,2,2,0,0,1,.9,1,2.82,2.82,0,0,1,.12,1.5,3.39,3.39,0,0,1-.62,1.49,3.07,3.07,0,0,1-1.25,1,4.43,4.43,0,0,1-1.77.34h-2.3l.25-1.49h2a2.68,2.68,0,0,0,.91-.14,1.32,1.32,0,0,0,.59-.44,1.68,1.68,0,0,0,.29-.72,1.33,1.33,0,0,0-.05-.73.83.83,0,0,0-.45-.45,1.91,1.91,0,0,0-.86-.16h-1.24l-1.2,7.22Zm5.37-4,1.52,4h-2l-1.47-4Z" transform="translate(4.5 -0.67)"/><path class="cls-13" d="M299.45,279.67a3.15,3.15,0,0,1-1.67-.41,2.23,2.23,0,0,1-.92-1.17,3.51,3.51,0,0,1-.09-1.79,4.31,4.31,0,0,1,.69-1.78,3.56,3.56,0,0,1,3-1.61,3.14,3.14,0,0,1,1.18.21,2,2,0,0,1,.87.62,2.14,2.14,0,0,1,.48,1,4,4,0,0,1,0,1.46l-.08.5h-5.53l.18-1.12h3.82a1.33,1.33,0,0,0-.05-.7,1,1,0,0,0-.39-.47,1.16,1.16,0,0,0-.66-.18,1.5,1.5,0,0,0-.75.2,1.93,1.93,0,0,0-.59.51,1.77,1.77,0,0,0-.3.69l-.2,1.12a1.8,1.8,0,0,0,0,.85.89.89,0,0,0,.42.51,1.57,1.57,0,0,0,.77.17,2.12,2.12,0,0,0,.57-.08,1.45,1.45,0,0,0,.47-.26,1.28,1.28,0,0,0,.34-.42l1.66.11a2.81,2.81,0,0,1-.7,1.06,3.32,3.32,0,0,1-1.13.7A4.27,4.27,0,0,1,299.45,279.67Z" transform="translate(4.5 -0.67)"/><path class="cls-13" d="M308.28,273l-.23,1.37h-4l.23-1.37Zm-4.21,6.55,1.17-7a2.74,2.74,0,0,1,.47-1.18,2.17,2.17,0,0,1,.89-.7,2.71,2.71,0,0,1,1.14-.24,3.42,3.42,0,0,1,.75.07,4.33,4.33,0,0,1,.49.11l-.54,1.37a1.26,1.26,0,0,0-.25-.07,1.55,1.55,0,0,0-.31,0,.79.79,0,0,0-.59.19,1,1,0,0,0-.25.51l-1.16,7Z" transform="translate(4.5 -0.67)"/></g></svg>