<svg xmlns="http://www.w3.org/2000/svg" viewBox="0 0 451.94 249.45"><defs><style>.cls-1{fill:#fff;}.cls-2{fill:#6864ad;}.cls-3{fill:#7570b3;}.cls-4{fill:#8b86bf;}.cls-5{fill:#6d6e71;}</style></defs><g id="Layer_1_copy" data-name="Layer 1 copy"><path class="cls-1" d="M44.27,120.94c.41-7.16,6.62-14.18,14.25-15.84,1.53-.33,1.71-.94,1.7-2.24,0-7,0-13.93,0-20.9,0-4.49,2.16-7,6.64-7.4,1.49-.14,1-1.09,1-1.75q0-16.62,0-33.26c0-.44,0-.89,0-1.33A2.23,2.23,0,0,1,72.25,38a8.47,8.47,0,0,1,.09,1.89q0,16.35,0,32.69c0,1.24,0,2,1.69,2.06,3.57.21,5.92,3.22,5.93,7.12,0,7.09,0,14.19,0,21.28,0,1.33.32,1.76,1.68,2.06,8.08,1.84,14.41,9.43,14.34,17-.52.44-.35,1-.35,1.59q0,55.57,0,111.13c0,.59-.25,1.3.47,1.71,2,0,3.92.09,5.88.12,3.17.06,5.15,1.85,5.1,4.62s-2,4.4-5.09,4.4H38.06c-2.62,0-4.39-1.24-4.87-3.36a4.53,4.53,0,0,1,2.47-5.23,8.71,8.71,0,0,1,3.55-.43c1.51,0,3.52.49,4.4-.28s.32-3,.32-4.52Q44,178.4,44,125a8.05,8.05,0,0,1,.22-3c0,.76.08,1.52.08,2.28q0,54.95,0,109.88a4.62,4.62,0,0,0,.16,2.08,2.8,2.8,0,0,0,.18-1.68q0-55.8,0-111.59C44.61,122.26,44.86,121.52,44.27,120.94Zm44.85,11.41a37.7,37.7,0,0,0,0-10.92,11.76,11.76,0,0,0-11.37-10.07q-7.69-.17-15.4,0a11.93,11.93,0,0,0-11.62,11.91q0,55.88,0,111.74c0,1.35.4,1.65,1.7,1.65q17.67-.07,35.34,0c1.33,0,1.83-.4,1.77-1.65.62-.57.35-1.31.36-2,0-3.92,0-7.85,0-11.78q0-21.95,0-43.89c0-.5.6-1.29-.4-1.59-.44,0-.88-.1-1.32-.1-4.87,0-9.75-.05-14.62,0-1.18,0-1.56-.32-1.47-1.49a22.84,22.84,0,0,0,0-3.79c-.12-1.3.39-1.57,1.61-1.56,4.74.07,9.49,0,14.23.06,1.29,0,1.6-.39,1.56-1.61-.08-2.72-.1-5.44,0-8.16,0-1.37-.26-1.87-1.75-1.82-3.54.12-7.09.07-10.63,0-1.62,0-3.75.74-4.73-.35s-.13-3.14-.3-4.76c-.14-1.34.32-1.7,1.66-1.68,5.24,0,10.49,0,15.74-.08a1.92,1.92,0,0,0,.32.09s.1-.07.1-.12c0-3.47-.08-7,.11-10.41.07-1.4-.42-1.63-1.57-1.63-3.91,0-7.83,0-11.74,0s-3.93,0-3.93-4.05c0-1.39.52-1.7,1.78-1.67,4.67.08,9.34.07,14,.13C89,132.85,89.06,132.69,89.12,132.35ZM51.21,237l-.08.18H88.62V237ZM71.93,40l-.19,0V73.71h.19Zm.83,110.84a5.53,5.53,0,0,0-.35,2.73c0,3.46,0,3.46,3.51,3.46H89a1.56,1.56,0,0,0-1.31-.36c-4.42,0-8.84,0-13.26,0-1.23,0-1.72-.36-1.63-1.62S72.76,152.61,72.76,150.86ZM78.38,111l0-.18H63.33V111Z" transform="translate(-33.06 -36.17)"/><path class="cls-1" d="M170.67,260.5c0-1.33-.93-1.18-1.82-1.18H141.11c-4,0-8,0-12,0-.83,0-1.41,0-1.41-1.15,0-13.05,0-26.1,0-39.15,0-.29-.07-.65.38-.71.44.52,1,.35,1.59.35q19.51,0,39,0c.55,0,1.16.18,1.56-.41.69-5,.35-9.57-4.34-13-5.52-4-7.75-10-8.18-16.63-.11-1.6-1-3.66,0-4.71s3-.12,4.58-.31,2,.3,1.92,1.82a31.24,31.24,0,0,0,.42,5.1c.6,4.47,3.07,7.8,6.55,10.49a15.15,15.15,0,0,1,5.73,9.32,12.45,12.45,0,0,1,.09,1.5c-.56.59-.32,1.33-.32,2q0,28.8,0,57.6c0,.67-.24,1.41.33,2a11.64,11.64,0,0,1-11.22,11q-21.76.12-43.53,0A11.67,11.67,0,0,1,111,272.91q-.09-30.23,0-60.44a14.14,14.14,0,0,1,5.59-11.17c3-2.45,5.63-5.13,6.51-9.07a29.24,29.24,0,0,0,.8-7.34c0-1,.27-1.37,1.28-1.28s2,0,3,0c2.6,0,2.61,0,2.44,2.51a46.65,46.65,0,0,1-1.08,7.89A20.2,20.2,0,0,1,122,205.53c-3.14,2.41-4.32,5.41-4.3,9.36.13,18.88.06,37.76.06,56.64,0,4.26,1.87,6.15,6.09,6.15H164c4.28,0,5.63-1,6.7-5.11.61,1.09.42.05.42-.18q0-5.26,0-10.54C171.09,261.37,171.18,260.84,170.67,260.5Zm-53.28-48.21h-.18V273h.18Zm48.7,66,0-.16H122.9v.16ZM128.6,258.68l0,.19h41.72v-.19Z" transform="translate(-33.06 -36.17)"/><path class="cls-1" d="M164.62,155.21a5.38,5.38,0,0,1,4.92,5.32c.07,3.86.08,7.72,0,11.58a5.49,5.49,0,0,1-5.62,5.5q-19.75.06-39.51,0a5.52,5.52,0,0,1-5.7-5.44c-.13-3.86-.11-7.72,0-11.58a5.38,5.38,0,0,1,4.87-5.38c.53.52,1.2.32,1.81.32q18.72,0,37.44,0C163.43,155.54,164.1,155.75,164.62,155.21Z" transform="translate(-33.06 -36.17)"/><path class="cls-1" d="M70,285.61c-6.28,0-12.55,0-18.82,0a4.48,4.48,0,0,1-4.67-4.48A4.55,4.55,0,0,1,51,276.58c.5,0,1,0,1.52,0,4.34,0,4.34,0,4.34-4.26,0-6.4,0-12.8,0-19.2,0-1.24.29-1.63,1.57-1.62q11.69.08,23.38,0c1.22,0,1.46.39,1.45,1.52,0,7.23,0,14.45-.06,21.67,0,1.66.51,2.07,2,1.93a26.78,26.78,0,0,1,3.8,0,4.59,4.59,0,0,1,4.61,4.59,4.54,4.54,0,0,1-4.74,4.43C82.58,285.63,76.3,285.61,70,285.61Z" transform="translate(-33.06 -36.17)"/><path class="cls-1" d="M96.06,236.52c-.72-.41-.47-1.12-.47-1.71q0-55.56,0-111.13c0-.55-.17-1.15.35-1.59,0,.63.12,1.26.12,1.89Z" transform="translate(-33.06 -36.17)"/><path class="cls-1" d="M177.14,273.43c-.57-.58-.33-1.32-.33-2q0-28.8,0-57.6c0-.67-.24-1.41.32-2,0,.51.09,1,.09,1.52q0,29.28,0,58.56C177.22,272.42,177.17,272.93,177.14,273.43Z" transform="translate(-33.06 -36.17)"/><path class="cls-1" d="M170.32,218.26c-.4.59-1,.41-1.56.41q-19.51,0-39,0c-.55,0-1.15.17-1.59-.35,5.13,0,10.26-.08,15.39-.09Z" transform="translate(-33.06 -36.17)"/><path class="cls-1" d="M164.62,155.21c-.52.54-1.19.33-1.8.33q-18.72,0-37.44,0c-.61,0-1.28.2-1.81-.32.82,0,1.63-.11,2.45-.11h36.72C163.37,155.11,164,155.17,164.62,155.21Z" transform="translate(-33.06 -36.17)"/><path class="cls-1" d="M170.67,260.5c.51.34.42.87.42,1.36q0,5.28,0,10.54c0,.23.19,1.27-.42.18C170.51,268.55,170.49,264.53,170.67,260.5Z" transform="translate(-33.06 -36.17)"/><path class="cls-1" d="M89.44,150.49c0-3.29-.09-6.58,0-9.87,0-1.38-.44-1.68-1.72-1.66-4.62.06-9.24,0-13.85.07-1.55,0-2-.47-1.83-1.92a15.34,15.34,0,0,0,0-3c-.14-1.33.18-1.86,1.7-1.82,5.12.12,10.24.07,15.37.09-.06.34-.16.5-.6.49-4.67-.06-9.34-.05-14-.13-1.26,0-1.78.28-1.78,1.67,0,4.05-.07,4.05,3.93,4.05s7.83,0,11.74,0c1.15,0,1.64.23,1.57,1.63-.19,3.46-.09,6.94-.11,10.41,0,0-.07.13-.1.12A1.92,1.92,0,0,1,89.44,150.49Z" transform="translate(-33.06 -36.17)"/><path class="cls-1" d="M89.51,235a6.36,6.36,0,0,1-.08-.75q0-29.25,0-58.49c1,.3.39,1.09.4,1.59q.06,21.94,0,43.89c0,3.93,0,7.86,0,11.78C89.86,233.72,90.13,234.46,89.51,235Z" transform="translate(-33.06 -36.17)"/><path class="cls-1" d="M51.21,237H88.62v.18H51.13Z" transform="translate(-33.06 -36.17)"/><path class="cls-1" d="M71.93,40V73.71h-.19V40Z" transform="translate(-33.06 -36.17)"/><path class="cls-1" d="M72.76,150.86c0,1.75.07,3,0,4.23s.4,1.64,1.63,1.62c4.42-.06,8.84,0,13.26,0a1.56,1.56,0,0,1,1.31.36h-13c-3.52,0-3.53,0-3.51-3.46A5.53,5.53,0,0,1,72.76,150.86Z" transform="translate(-33.06 -36.17)"/><path class="cls-1" d="M117.39,212.29V273h-.18V212.29Z" transform="translate(-33.06 -36.17)"/><path class="cls-1" d="M128.6,258.68h41.68v.19H128.56Z" transform="translate(-33.06 -36.17)"/><path class="cls-1" d="M57.55,230.47c-.45-.05-.4-.39-.4-.7l.06-38.86H82.56c-8.42-.41-16.85-.31-25.28-.37.23-.44.65-.29,1-.29,7.71,0,15.42,0,23.13,0,1.18,0,1.63.22,1.63,1.55-.06,12.45,0,24.9-.05,37.35,0,.44.32,1-.34,1.32-.44-.53-1.05-.36-1.59-.36H59.13C58.58,230.09,58,229.93,57.55,230.47Z" transform="translate(-33.06 -36.17)"/><path class="cls-1" d="M57.28,190.54c8.43.06,16.86,0,25.28.37H57.21Z" transform="translate(-33.06 -36.17)"/><path class="cls-1" d="M57.55,230.47c.43-.54,1-.38,1.58-.38H81.06c.54,0,1.15-.17,1.59.36C74.28,230.64,65.92,230.6,57.55,230.47Z" transform="translate(-33.06 -36.17)"/></g><g id="Layer_1" data-name="Layer 1"><path class="cls-2" d="M44.27,120.94c.41-7.16,6.62-14.18,14.25-15.84,1.53-.33,1.71-.94,1.7-2.24,0-7,0-13.93,0-20.9,0-4.49,2.16-7,6.64-7.4,1.49-.14,1-1.09,1-1.75q0-16.62,0-33.26c0-.44,0-.89,0-1.33A2.23,2.23,0,0,1,72.25,38a8.47,8.47,0,0,1,.09,1.89q0,16.35,0,32.69c0,1.24,0,2,1.69,2.06,3.57.21,5.92,3.22,5.93,7.12,0,7.09,0,14.19,0,21.28,0,1.33.32,1.76,1.68,2.06,8.08,1.84,14.41,9.43,14.34,17-.52.44-.35,1-.35,1.59q0,55.57,0,111.13c0,.59-.25,1.3.47,1.71,2,0,3.92.09,5.88.12,3.17.06,5.15,1.85,5.1,4.62s-2,4.4-5.09,4.4H38.06c-2.62,0-4.39-1.24-4.87-3.36a4.53,4.53,0,0,1,2.47-5.23,8.71,8.71,0,0,1,3.55-.43c1.51,0,3.52.49,4.4-.28s.32-3,.32-4.52Q44,178.4,44,125a8.05,8.05,0,0,1,.22-3c0,.76.08,1.52.08,2.28q0,54.95,0,109.88a4.62,4.62,0,0,0,.16,2.08,2.8,2.8,0,0,0,.18-1.68q0-55.8,0-111.59C44.61,122.26,44.86,121.52,44.27,120.94Zm44.85,11.41a37.7,37.7,0,0,0,0-10.92,11.76,11.76,0,0,0-11.37-10.07q-7.69-.17-15.4,0a11.93,11.93,0,0,0-11.62,11.91q0,55.88,0,111.74c0,1.35.4,1.65,1.7,1.65q17.67-.07,35.34,0c1.33,0,1.83-.4,1.77-1.65.62-.57.35-1.31.36-2,0-3.92,0-7.85,0-11.78q0-21.95,0-43.89c0-.5.6-1.29-.4-1.59-.44,0-.88-.1-1.32-.1-4.87,0-9.75-.05-14.62,0-1.18,0-1.56-.32-1.47-1.49a22.84,22.84,0,0,0,0-3.79c-.12-1.3.39-1.57,1.61-1.56,4.74.07,9.49,0,14.23.06,1.29,0,1.6-.39,1.56-1.61-.08-2.72-.1-5.44,0-8.16,0-1.37-.26-1.87-1.75-1.82-3.54.12-7.09.07-10.63,0-1.62,0-3.75.74-4.73-.35s-.13-3.14-.3-4.76c-.14-1.34.32-1.7,1.66-1.68,5.24,0,10.49,0,15.74-.08a1.92,1.92,0,0,0,.32.09s.1-.07.1-.12c0-3.47-.08-7,.11-10.41.07-1.4-.42-1.63-1.57-1.63-3.91,0-7.83,0-11.74,0s-3.93,0-3.93-4.05c0-1.39.52-1.7,1.78-1.67,4.67.08,9.34.07,14,.13C89,132.85,89.06,132.69,89.12,132.35ZM51.21,237l-.08.18H88.62V237ZM71.93,40l-.19,0V73.71h.19Zm.83,110.84a5.53,5.53,0,0,0-.35,2.73c0,3.46,0,3.46,3.51,3.46H89a1.56,1.56,0,0,0-1.31-.36c-4.42,0-8.84,0-13.26,0-1.23,0-1.72-.36-1.63-1.62S72.76,152.61,72.76,150.86ZM78.38,111l0-.18H63.33V111Z" transform="translate(-33.06 -36.17)"/><path class="cls-3" d="M170.67,260.5c0-1.33-.93-1.18-1.82-1.18H141.11c-4,0-8,0-12,0-.83,0-1.41,0-1.41-1.15,0-13.05,0-26.1,0-39.15,0-.29-.07-.65.38-.71.44.52,1,.35,1.59.35q19.51,0,39,0c.55,0,1.16.18,1.56-.41.69-5,.35-9.57-4.34-13-5.52-4-7.75-10-8.18-16.63-.11-1.6-1-3.66,0-4.71s3-.12,4.58-.31,2,.3,1.92,1.82a31.24,31.24,0,0,0,.42,5.1c.6,4.47,3.07,7.8,6.55,10.49a15.15,15.15,0,0,1,5.73,9.32,12.45,12.45,0,0,1,.09,1.5c-.56.59-.32,1.33-.32,2q0,28.8,0,57.6c0,.67-.24,1.41.33,2a11.64,11.64,0,0,1-11.22,11q-21.76.12-43.53,0A11.67,11.67,0,0,1,111,272.91q-.09-30.23,0-60.44a14.14,14.14,0,0,1,5.59-11.17c3-2.45,5.63-5.13,6.51-9.07a29.24,29.24,0,0,0,.8-7.34c0-1,.27-1.37,1.28-1.28s2,0,3,0c2.6,0,2.61,0,2.44,2.51a46.65,46.65,0,0,1-1.08,7.89A20.2,20.2,0,0,1,122,205.53c-3.14,2.41-4.32,5.41-4.3,9.36.13,18.88.06,37.76.06,56.64,0,4.26,1.87,6.15,6.09,6.15H164c4.28,0,5.63-1,6.7-5.11.61,1.09.42.05.42-.18q0-5.26,0-10.54C171.09,261.37,171.18,260.84,170.67,260.5Zm-53.28-48.21h-.18V273h.18Zm48.7,66,0-.16H122.9v.16ZM128.6,258.68l0,.19h41.72v-.19Z" transform="translate(-33.06 -36.17)"/><path class="cls-2" d="M164.62,155.21a5.38,5.38,0,0,1,4.92,5.32c.07,3.86.08,7.72,0,11.58a5.49,5.49,0,0,1-5.62,5.5q-19.75.06-39.51,0a5.52,5.52,0,0,1-5.7-5.44c-.13-3.86-.11-7.72,0-11.58a5.38,5.38,0,0,1,4.87-5.38c.53.52,1.2.32,1.81.32q18.72,0,37.44,0C163.43,155.54,164.1,155.75,164.62,155.21Z" transform="translate(-33.06 -36.17)"/><path class="cls-3" d="M70,285.61c-6.28,0-12.55,0-18.82,0a4.48,4.48,0,0,1-4.67-4.48A4.55,4.55,0,0,1,51,276.58c.5,0,1,0,1.52,0,4.34,0,4.34,0,4.34-4.26,0-6.4,0-12.8,0-19.2,0-1.24.29-1.63,1.57-1.62q11.69.08,23.38,0c1.22,0,1.46.39,1.45,1.52,0,7.23,0,14.45-.06,21.67,0,1.66.51,2.07,2,1.93a26.78,26.78,0,0,1,3.8,0,4.59,4.59,0,0,1,4.61,4.59,4.54,4.54,0,0,1-4.74,4.43C82.58,285.63,76.3,285.61,70,285.61Z" transform="translate(-33.06 -36.17)"/><path class="cls-2" d="M96.06,236.52c-.72-.41-.47-1.12-.47-1.71q0-55.56,0-111.13c0-.55-.17-1.15.35-1.59,0,.63.12,1.26.12,1.89Z" transform="translate(-33.06 -36.17)"/><path class="cls-3" d="M177.14,273.43c-.57-.58-.33-1.32-.33-2q0-28.8,0-57.6c0-.67-.24-1.41.32-2,0,.51.09,1,.09,1.52q0,29.28,0,58.56C177.22,272.42,177.17,272.93,177.14,273.43Z" transform="translate(-33.06 -36.17)"/><path class="cls-3" d="M170.32,218.26c-.4.59-1,.41-1.56.41q-19.51,0-39,0c-.55,0-1.15.17-1.59-.35,5.13,0,10.26-.08,15.39-.09Z" transform="translate(-33.06 -36.17)"/><path class="cls-2" d="M164.62,155.21c-.52.54-1.19.33-1.8.33q-18.72,0-37.44,0c-.61,0-1.28.2-1.81-.32.82,0,1.63-.11,2.45-.11h36.72C163.37,155.11,164,155.17,164.62,155.21Z" transform="translate(-33.06 -36.17)"/><path class="cls-3" d="M170.67,260.5c.51.34.42.87.42,1.36q0,5.28,0,10.54c0,.23.19,1.27-.42.18C170.51,268.55,170.49,264.53,170.67,260.5Z" transform="translate(-33.06 -36.17)"/><path class="cls-2" d="M89.44,150.49c0-3.29-.09-6.58,0-9.87,0-1.38-.44-1.68-1.72-1.66-4.62.06-9.24,0-13.85.07-1.55,0-2-.47-1.83-1.92a15.34,15.34,0,0,0,0-3c-.14-1.33.18-1.86,1.7-1.82,5.12.12,10.24.07,15.37.09-.06.34-.16.5-.6.49-4.67-.06-9.34-.05-14-.13-1.26,0-1.78.28-1.78,1.67,0,4.05-.07,4.05,3.93,4.05s7.83,0,11.74,0c1.15,0,1.64.23,1.57,1.63-.19,3.46-.09,6.94-.11,10.41,0,0-.07.13-.1.12A1.92,1.92,0,0,1,89.44,150.49Z" transform="translate(-33.06 -36.17)"/><path class="cls-2" d="M89.51,235a6.36,6.36,0,0,1-.08-.75q0-29.25,0-58.49c1,.3.39,1.09.4,1.59q.06,21.94,0,43.89c0,3.93,0,7.86,0,11.78C89.86,233.72,90.13,234.46,89.51,235Z" transform="translate(-33.06 -36.17)"/><path class="cls-2" d="M51.21,237H88.62v.18H51.13Z" transform="translate(-33.06 -36.17)"/><path class="cls-2" d="M71.93,40V73.71h-.19V40Z" transform="translate(-33.06 -36.17)"/><path class="cls-2" d="M72.76,150.86c0,1.75.07,3,0,4.23s.4,1.64,1.63,1.62c4.42-.06,8.84,0,13.26,0a1.56,1.56,0,0,1,1.31.36h-13c-3.52,0-3.53,0-3.51-3.46A5.53,5.53,0,0,1,72.76,150.86Z" transform="translate(-33.06 -36.17)"/><path class="cls-3" d="M117.39,212.29V273h-.18V212.29Z" transform="translate(-33.06 -36.17)"/><path class="cls-3" d="M128.6,258.68h41.68v.19H128.56Z" transform="translate(-33.06 -36.17)"/><path class="cls-4" d="M57.55,230.47c-.45-.05-.4-.39-.4-.7l.06-38.86H82.56c-8.42-.41-16.85-.31-25.28-.37.23-.44.65-.29,1-.29,7.71,0,15.42,0,23.13,0,1.18,0,1.63.22,1.63,1.55-.06,12.45,0,24.9-.05,37.35,0,.44.32,1-.34,1.32-.44-.53-1.05-.36-1.59-.36H59.13C58.58,230.09,58,229.93,57.55,230.47Z" transform="translate(-33.06 -36.17)"/><path class="cls-4" d="M57.28,190.54c8.43.06,16.86,0,25.28.37H57.21Z" transform="translate(-33.06 -36.17)"/><path class="cls-4" d="M57.55,230.47c.43-.54,1-.38,1.58-.38H81.06c.54,0,1.15-.17,1.59.36C74.28,230.64,65.92,230.6,57.55,230.47Z" transform="translate(-33.06 -36.17)"/></g><g id="Layer_3" data-name="Layer 3"><path class="cls-2" d="M224.07,186.78h15.44v36.44a19.41,19.41,0,0,1-11.72,18.53,33.43,33.43,0,0,1-25.71,0,20,20,0,0,1-8.6-7.3,20.24,20.24,0,0,1-3.06-11.23V186.78h15.44v35.1a9.5,9.5,0,0,0,1.16,4.71,8.41,8.41,0,0,0,3.24,3.24,10.16,10.16,0,0,0,9.43,0,8.42,8.42,0,0,0,3.22-3.24,9.5,9.5,0,0,0,1.16-4.71Z" transform="translate(-33.06 -36.17)"/><path class="cls-2" d="M267.62,260.54a29.78,29.78,0,0,1-11-1.82,16.64,16.64,0,0,1-7.08-5,13.14,13.14,0,0,1-2.82-7.29h14.78a3.78,3.78,0,0,0,1.11,2.2,5.27,5.27,0,0,0,2.29,1.2,12.14,12.14,0,0,0,3.15.38,8.11,8.11,0,0,0,4.93-1.44c1.3-1,2-2.71,2-5.23v-7.21h-.45A9.09,9.09,0,0,1,272,240a11.76,11.76,0,0,1-4.14,2.31A17.87,17.87,0,0,1,254.13,241,15.1,15.1,0,0,1,248,234.3q-2.28-4.59-2.29-12,0-7.72,2.41-12.55a16.2,16.2,0,0,1,6.22-7.08,15.57,15.57,0,0,1,8-2.25,13.18,13.18,0,0,1,5.55,1.09,11.9,11.9,0,0,1,4,2.92,13,13,0,0,1,2.44,4h.34V201h15.32v42.54a15,15,0,0,1-2.79,9.21,17.33,17.33,0,0,1-7.84,5.79A32,32,0,0,1,267.62,260.54Zm.55-28.33A5.71,5.71,0,0,0,271.8,231a7.49,7.49,0,0,0,2.33-3.38,15.53,15.53,0,0,0,.82-5.32,16.16,16.16,0,0,0-.82-5.43,7.69,7.69,0,0,0-2.33-3.47,5.62,5.62,0,0,0-3.63-1.21,5.47,5.47,0,0,0-3.59,1.21,7.46,7.46,0,0,0-2.28,3.47,16.46,16.46,0,0,0-.79,5.43,15.93,15.93,0,0,0,.79,5.37,7.15,7.15,0,0,0,2.28,3.36A5.65,5.65,0,0,0,268.17,232.21Z" transform="translate(-33.06 -36.17)"/><path class="cls-2" d="M309.72,244.32a18.18,18.18,0,0,1-7.21-1.34,10.78,10.78,0,0,1-4.9-4.1,12.63,12.63,0,0,1-1.78-7,13.77,13.77,0,0,1,1.19-6,10.74,10.74,0,0,1,3.34-4.07,15.61,15.61,0,0,1,5-2.42,30.55,30.55,0,0,1,6.15-1.08c2.39-.19,4.31-.41,5.77-.68a7.72,7.72,0,0,0,3.15-1.14,2.32,2.32,0,0,0,1-2v-.11a2.92,2.92,0,0,0-1.28-2.55,5.54,5.54,0,0,0-3.27-.89,6.08,6.08,0,0,0-3.57,1,4,4,0,0,0-1.66,2.93H297.5a14.47,14.47,0,0,1,2.48-7.18,15.31,15.31,0,0,1,6.46-5.28,25.09,25.09,0,0,1,10.61-2,29.31,29.31,0,0,1,8.22,1.06,19.59,19.59,0,0,1,6.19,3,13.31,13.31,0,0,1,3.9,4.44,11.55,11.55,0,0,1,1.35,5.51v29.22H322.38v-6h-.33a12.58,12.58,0,0,1-3.1,3.86,11.66,11.66,0,0,1-4.14,2.14A18.5,18.5,0,0,1,309.72,244.32Zm5-9.66a7.72,7.72,0,0,0,3.3-.72,6.38,6.38,0,0,0,2.51-2.09,5.48,5.48,0,0,0,1-3.3V225q-.62.25-1.29.48c-.45.15-.94.28-1.45.41s-1,.25-1.61.36-1.15.22-1.76.31a9.1,9.1,0,0,0-2.9.9,4.38,4.38,0,0,0-1.67,1.53,3.83,3.83,0,0,0-.54,2,3.2,3.2,0,0,0,1.25,2.72A5.15,5.15,0,0,0,314.71,234.66Z" transform="translate(-33.06 -36.17)"/><path class="cls-4" d="M355.37,186.78,367,226.88h.45l11.66-40.1h17.44l-18.77,56.88H356.7l-18.77-56.88Z" transform="translate(-33.06 -36.17)"/><path class="cls-4" d="M408.91,244.32A18.25,18.25,0,0,1,401.7,243a10.83,10.83,0,0,1-4.9-4.1,12.71,12.71,0,0,1-1.77-7,13.63,13.63,0,0,1,1.19-6,10.71,10.71,0,0,1,3.33-4.07,15.76,15.76,0,0,1,5-2.42,30.3,30.3,0,0,1,6.15-1.08c2.39-.19,4.31-.41,5.76-.68a7.72,7.72,0,0,0,3.15-1.14,2.32,2.32,0,0,0,1-2v-.11a2.91,2.91,0,0,0-1.27-2.55A5.59,5.59,0,0,0,416,211a6.12,6.12,0,0,0-3.57,1,4,4,0,0,0-1.65,2.93H396.69a14.58,14.58,0,0,1,2.49-7.18,15.28,15.28,0,0,1,6.45-5.28,25.12,25.12,0,0,1,10.61-2,29.21,29.21,0,0,1,8.22,1.06,19.48,19.48,0,0,1,6.19,3,13.24,13.24,0,0,1,3.91,4.44,11.66,11.66,0,0,1,1.34,5.51v29.22H421.57v-6h-.33a12.3,12.3,0,0,1-3.1,3.86,11.7,11.7,0,0,1-4.13,2.14A18.63,18.63,0,0,1,408.91,244.32Zm5-9.66a7.67,7.67,0,0,0,3.29-.72,6.31,6.31,0,0,0,2.51-2.09,5.48,5.48,0,0,0,1-3.3V225q-.6.25-1.29.48c-.45.15-.93.28-1.44.41s-1.05.25-1.61.36-1.15.22-1.76.31a9.09,9.09,0,0,0-2.91.9A4.34,4.34,0,0,0,410,229a3.83,3.83,0,0,0-.54,2,3.18,3.18,0,0,0,1.25,2.72A5.13,5.13,0,0,0,413.91,234.66Z" transform="translate(-33.06 -36.17)"/><path class="cls-4" d="M456.45,201l6.22,13.22L469.23,201h15.21L473,222.33l12,21.33H469.89l-7.22-13.56-7,13.56H440.35l12.1-21.33L441.12,201Z" transform="translate(-33.06 -36.17)"/><path class="cls-5" d="M241.34,275.35V263.18h4.33a4.91,4.91,0,0,1,2.36.52,3.43,3.43,0,0,1,1.39,1.41,4.55,4.55,0,0,1,0,4,3.34,3.34,0,0,1-1.4,1.41,4.78,4.78,0,0,1-2.35.52h-3v-1.55h2.81a3.1,3.1,0,0,0,1.46-.31,2,2,0,0,0,.82-.86,2.85,2.85,0,0,0,.26-1.23,2.8,2.8,0,0,0-.26-1.22,1.87,1.87,0,0,0-.83-.84,3.09,3.09,0,0,0-1.47-.3h-2.31v10.59Z" transform="translate(-33.06 -36.17)"/><path class="cls-5" d="M255.62,275.54a4.2,4.2,0,0,1-2.24-.59,4,4,0,0,1-1.49-1.65,6,6,0,0,1,0-4.95,4,4,0,0,1,1.49-1.65,4.55,4.55,0,0,1,4.48,0,3.89,3.89,0,0,1,1.48,1.65,6,6,0,0,1,0,4.95,4,4,0,0,1-1.48,1.65A4.23,4.23,0,0,1,255.62,275.54Zm0-1.5a2.08,2.08,0,0,0,1.38-.44,2.48,2.48,0,0,0,.81-1.17,4.91,4.91,0,0,0,0-3.21A2.51,2.51,0,0,0,257,268a2.34,2.34,0,0,0-2.76,0,2.6,2.6,0,0,0-.82,1.18,5.08,5.08,0,0,0,0,3.21,2.57,2.57,0,0,0,.82,1.17A2.1,2.1,0,0,0,255.62,274Z" transform="translate(-33.06 -36.17)"/><path class="cls-5" d="M263.55,275.35l-2.69-9.12h1.84l1.79,6.7h.09l1.79-6.7h1.84L270,272.9h.09l1.77-6.67h1.84L271,275.35H269.2l-1.86-6.59h-.13l-1.86,6.59Z" transform="translate(-33.06 -36.17)"/><path class="cls-5" d="M279,275.54a4.54,4.54,0,0,1-2.32-.58,3.89,3.89,0,0,1-1.49-1.64,6,6,0,0,1,0-4.94,4,4,0,0,1,1.47-1.67,4.05,4.05,0,0,1,2.22-.6,4.54,4.54,0,0,1,1.5.25,3.76,3.76,0,0,1,1.3.8,4,4,0,0,1,.91,1.42,6,6,0,0,1,.33,2.11v.63h-7.25V270h5.51a2.61,2.61,0,0,0-.29-1.24,2.08,2.08,0,0,0-.8-.86,2.24,2.24,0,0,0-1.2-.32,2.33,2.33,0,0,0-1.3.37,2.46,2.46,0,0,0-.86.95,2.73,2.73,0,0,0-.3,1.27v1a3.32,3.32,0,0,0,.33,1.55,2.2,2.2,0,0,0,.9,1,2.62,2.62,0,0,0,1.36.34,2.65,2.65,0,0,0,.92-.15,1.87,1.87,0,0,0,.72-.43,1.93,1.93,0,0,0,.46-.72l1.69.3a3.11,3.11,0,0,1-.73,1.3,3.52,3.52,0,0,1-1.3.86A4.92,4.92,0,0,1,279,275.54Z" transform="translate(-33.06 -36.17)"/><path class="cls-5" d="M284.92,275.35v-9.12h1.71v1.45h.1a2.2,2.2,0,0,1,.88-1.17,2.54,2.54,0,0,1,1.44-.42h.39l.36,0v1.7l-.38-.07a4.91,4.91,0,0,0-.55,0,2.29,2.29,0,0,0-1.12.27,2,2,0,0,0-1.06,1.79v5.57Z" transform="translate(-33.06 -36.17)"/><path class="cls-5" d="M294.94,275.54a4.51,4.51,0,0,1-2.32-.58,3.89,3.89,0,0,1-1.49-1.64,6,6,0,0,1,0-4.94,4,4,0,0,1,1.47-1.67,4.05,4.05,0,0,1,2.22-.6,4.54,4.54,0,0,1,1.5.25,3.76,3.76,0,0,1,1.3.8,4,4,0,0,1,.91,1.42,6,6,0,0,1,.33,2.11v.63h-7.25V270h5.51a2.61,2.61,0,0,0-.29-1.24,2.08,2.08,0,0,0-.8-.86,2.24,2.24,0,0,0-1.2-.32,2.33,2.33,0,0,0-1.3.37,2.46,2.46,0,0,0-.86.95,2.73,2.73,0,0,0-.3,1.27v1a3.32,3.32,0,0,0,.33,1.55,2.2,2.2,0,0,0,.9,1,2.62,2.62,0,0,0,1.36.34,2.65,2.65,0,0,0,.92-.15,1.87,1.87,0,0,0,.72-.43,1.93,1.93,0,0,0,.46-.72l1.69.3a3.11,3.11,0,0,1-.73,1.3,3.52,3.52,0,0,1-1.3.86A4.92,4.92,0,0,1,294.94,275.54Z" transform="translate(-33.06 -36.17)"/><path class="cls-5" d="M304.25,275.53a3.52,3.52,0,0,1-2-.57,3.88,3.88,0,0,1-1.35-1.62,5.92,5.92,0,0,1-.49-2.53,5.74,5.74,0,0,1,.5-2.53,3.68,3.68,0,0,1,1.36-1.61,3.49,3.49,0,0,1,2-.56,2.81,2.81,0,0,1,1.36.28,2.48,2.48,0,0,1,.81.66,4.86,4.86,0,0,1,.45.66H307v-4.53h1.77v12.17H307v-1.42h-.15a4.77,4.77,0,0,1-.46.67,2.62,2.62,0,0,1-.82.65A2.83,2.83,0,0,1,304.25,275.53Zm.4-1.52a2,2,0,0,0,1.29-.4,2.45,2.45,0,0,0,.81-1.13,4.64,4.64,0,0,0,.28-1.69,4.41,4.41,0,0,0-.28-1.66A2.47,2.47,0,0,0,306,268a2.13,2.13,0,0,0-1.3-.39,2.1,2.1,0,0,0-1.34.41,2.53,2.53,0,0,0-.81,1.14,4.59,4.59,0,0,0-.27,1.62,4.66,4.66,0,0,0,.28,1.64,2.54,2.54,0,0,0,.81,1.16A2.09,2.09,0,0,0,304.65,274Z" transform="translate(-33.06 -36.17)"/><path class="cls-5" d="M315.88,275.35V263.18h1.78v4.53h.1a3.53,3.53,0,0,1,.45-.66,2.48,2.48,0,0,1,.81-.66,2.81,2.81,0,0,1,1.36-.28,3.47,3.47,0,0,1,2,.56,3.7,3.7,0,0,1,1.37,1.61,6.78,6.78,0,0,1,0,5.06,3.88,3.88,0,0,1-1.35,1.62,3.5,3.5,0,0,1-2,.57,2.83,2.83,0,0,1-1.36-.28,2.62,2.62,0,0,1-.82-.65,4.77,4.77,0,0,1-.46-.67h-.15v1.42Zm1.74-4.56a4.64,4.64,0,0,0,.28,1.69,2.45,2.45,0,0,0,.81,1.13,2,2,0,0,0,1.29.4,2.07,2.07,0,0,0,1.33-.42,2.54,2.54,0,0,0,.81-1.16,4.44,4.44,0,0,0,.28-1.64,4.59,4.59,0,0,0-.27-1.62,2.53,2.53,0,0,0-.81-1.14,2.1,2.1,0,0,0-1.34-.41,2.13,2.13,0,0,0-1.3.39,2.42,2.42,0,0,0-.81,1.12A4.62,4.62,0,0,0,317.62,270.79Z" transform="translate(-33.06 -36.17)"/><path class="cls-5" d="M327,278.77a4,4,0,0,1-.72-.06,3,3,0,0,1-.49-.13l.43-1.46a2.56,2.56,0,0,0,.87.11,1,1,0,0,0,.67-.28,2.2,2.2,0,0,0,.52-.87l.22-.61-3.34-9.24h1.9l2.32,7.08h.09l2.31-7.08h1.91l-3.76,10.34a4.37,4.37,0,0,1-.67,1.21,2.54,2.54,0,0,1-1,.74A3.08,3.08,0,0,1,327,278.77Z" transform="translate(-33.06 -36.17)"/><path class="cls-5" d="M339.93,263.18h2.23l3.87,9.46h.15l3.87-9.46h2.23v12.17h-1.75v-8.8h-.11l-3.59,8.78h-1.45l-3.59-8.79h-.11v8.81h-1.75Z" transform="translate(-33.06 -36.17)"/><path class="cls-5" d="M358.74,275.54a4.51,4.51,0,0,1-2.32-.58,3.85,3.85,0,0,1-1.5-1.64,6.13,6.13,0,0,1,0-4.94,4,4,0,0,1,1.48-1.67,4.05,4.05,0,0,1,2.22-.6,4.44,4.44,0,0,1,1.49.25,3.58,3.58,0,0,1,1.3.8,3.74,3.74,0,0,1,.91,1.42,6,6,0,0,1,.34,2.11v.63H355.4V270h5.51a2.61,2.61,0,0,0-.28-1.24,2.14,2.14,0,0,0-.8-.86,2.24,2.24,0,0,0-1.2-.32,2.37,2.37,0,0,0-1.31.37,2.43,2.43,0,0,0-.85.95,2.73,2.73,0,0,0-.3,1.27v1a3.45,3.45,0,0,0,.32,1.55,2.28,2.28,0,0,0,.91,1,2.62,2.62,0,0,0,1.36.34,2.73,2.73,0,0,0,.92-.15,1.87,1.87,0,0,0,.72-.43,2.07,2.07,0,0,0,.46-.72l1.68.3a3,3,0,0,1-.72,1.3,3.6,3.6,0,0,1-1.3.86A4.92,4.92,0,0,1,358.74,275.54Z" transform="translate(-33.06 -36.17)"/><path class="cls-5" d="M368.05,275.53a3.5,3.5,0,0,1-2-.57,3.74,3.74,0,0,1-1.35-1.62,6.78,6.78,0,0,1,0-5.06,3.75,3.75,0,0,1,1.36-1.61,3.51,3.51,0,0,1,2-.56,2.85,2.85,0,0,1,1.37.28,2.48,2.48,0,0,1,.81.66,4.86,4.86,0,0,1,.45.66h.1v-4.53h1.78v12.17h-1.73v-1.42h-.15a4.77,4.77,0,0,1-.46.67,2.67,2.67,0,0,1-.83.65A2.79,2.79,0,0,1,368.05,275.53Zm.39-1.52a2.1,2.1,0,0,0,1.3-.4,2.6,2.6,0,0,0,.81-1.13,4.87,4.87,0,0,0,.27-1.69,4.62,4.62,0,0,0-.27-1.66,2.47,2.47,0,0,0-.8-1.12,2.14,2.14,0,0,0-1.31-.39,2.12,2.12,0,0,0-1.34.41,2.59,2.59,0,0,0-.8,1.14,4.59,4.59,0,0,0-.27,1.62,4.66,4.66,0,0,0,.27,1.64,2.61,2.61,0,0,0,.81,1.16A2.11,2.11,0,0,0,368.44,274Z" transform="translate(-33.06 -36.17)"/><path class="cls-5" d="M375.1,275.35v-9.12h1.72v1.45h.09a2.25,2.25,0,0,1,.88-1.17,2.56,2.56,0,0,1,1.44-.42h.39l.36,0v1.7l-.38-.07a4.9,4.9,0,0,0-.54,0,2.26,2.26,0,0,0-1.12.27,2,2,0,0,0-1.06,1.79v5.57Z" transform="translate(-33.06 -36.17)"/><path class="cls-5" d="M385.13,275.54a4.51,4.51,0,0,1-2.32-.58,3.85,3.85,0,0,1-1.5-1.64,6.13,6.13,0,0,1,0-4.94,4,4,0,0,1,1.48-1.67,4,4,0,0,1,2.21-.6,4.46,4.46,0,0,1,1.5.25,3.67,3.67,0,0,1,1.3.8,3.74,3.74,0,0,1,.91,1.42,6,6,0,0,1,.33,2.11v.63h-7.25V270h5.51a2.61,2.61,0,0,0-.28-1.24,2.14,2.14,0,0,0-.8-.86,2.24,2.24,0,0,0-1.2-.32,2.37,2.37,0,0,0-1.31.37,2.43,2.43,0,0,0-.85.95,2.73,2.73,0,0,0-.3,1.27v1a3.32,3.32,0,0,0,.32,1.55,2.28,2.28,0,0,0,.91,1,2.59,2.59,0,0,0,1.36.34,2.73,2.73,0,0,0,.92-.15,2,2,0,0,0,.72-.43,2.07,2.07,0,0,0,.46-.72l1.68.3a3,3,0,0,1-.72,1.3,3.6,3.6,0,0,1-1.3.86A5,5,0,0,1,385.13,275.54Z" transform="translate(-33.06 -36.17)"/><path class="cls-5" d="M395.36,266.23v1.42h-5.15v-1.42Zm-3.74,9.12V265.17a2.5,2.5,0,0,1,.38-1.42,2.27,2.27,0,0,1,1-.85,3.16,3.16,0,0,1,1.34-.29,4.09,4.09,0,0,1,.92.09,4.22,4.22,0,0,1,.56.16l-.42,1.43-.32-.08a2.12,2.12,0,0,0-.47,0,1.2,1.2,0,0,0-.93.32,1.39,1.39,0,0,0-.27.93v9.94Z" transform="translate(-33.06 -36.17)"/><path class="cls-5" d="M397.41,275.46a1.13,1.13,0,0,1-.83-.34,1.15,1.15,0,0,1-.36-.84,1.12,1.12,0,0,1,.36-.84,1.19,1.19,0,0,1,2,.84,1.11,1.11,0,0,1-.16.59,1.18,1.18,0,0,1-.43.43A1.12,1.12,0,0,1,397.41,275.46Z" transform="translate(-33.06 -36.17)"/></g><g id="Layer_2" data-name="Layer 2"><path class="cls-1" d="M164,233a10.58,10.58,0,0,1,1.09,3.6c0,.27-.13.54.05.8a.16.16,0,0,1,0,.23,8.57,8.57,0,0,0-.69.66c-.13-.22,0-.46-.13-.64-.09-.53-.15-1.07-.26-1.59a17,17,0,0,0-.71-2.3c0-.09,0-.19.06-.24C163.64,233.35,163.77,233.08,164,233Z" transform="translate(-33.06 -36.17)"/><path class="cls-1" d="M146.19,226.64a11.88,11.88,0,0,1,3.28-1.11,4.65,4.65,0,0,1,1.05-.14.34.34,0,0,1,.3.16,2.38,2.38,0,0,0,.49.56.65.65,0,0,1-.44.1,1.15,1.15,0,0,0-.62.16l-.78.16a16.11,16.11,0,0,0-2.53.79A1.09,1.09,0,0,1,146.19,226.64Z" transform="translate(-33.06 -36.17)"/><path class="cls-1" d="M165,241.49a9.78,9.78,0,0,1-1.05,3,3.57,3.57,0,0,1-.28-.27c-.06-.06-.2-.07-.18-.19s-.13-.21-.21-.31c.16-.42.32-.84.47-1.27a14.36,14.36,0,0,0,.57-2.68c.17-.14,0-.36.11-.53a7.59,7.59,0,0,1,.66.6s.12.1.09.18c-.1.3,0,.62-.13.91A.86.86,0,0,0,165,241.49Z" transform="translate(-33.06 -36.17)"/><path class="cls-1" d="M138.82,236.64a10.66,10.66,0,0,1,.69-2.72,4.16,4.16,0,0,1,.42-.94,1.16,1.16,0,0,1,.67.75,1.19,1.19,0,0,1-.15.41,16.56,16.56,0,0,0-.72,2.68,1.69,1.69,0,0,0-.16.8c0,.21,0,.42,0,.62a4.78,4.78,0,0,1-.7-.61.29.29,0,0,1-.09-.33A1.64,1.64,0,0,0,138.82,236.64Z" transform="translate(-33.06 -36.17)"/><path class="cls-1" d="M153.5,225.4a10.85,10.85,0,0,1,3,.69,6,6,0,0,1,1.3.57,1.91,1.91,0,0,1-.52.54.15.15,0,0,0-.07.2c-.7-.26-1.41-.54-2.13-.75a.73.73,0,0,0-.49-.21,11.62,11.62,0,0,0-2.08-.23c.18-.13.25-.3.45-.3,0,0,.06,0,.06-.07C153,225.54,153.25,225.45,153.5,225.4Z" transform="translate(-33.06 -36.17)"/><path class="cls-1" d="M157.62,250.68a5.93,5.93,0,0,1-1.46.58.81.81,0,0,0-.22,0,16.94,16.94,0,0,1-2,.47,1.45,1.45,0,0,1-.84.05c-.3-.13-.5-.45-.75-.69a2.49,2.49,0,0,1,.49-.06c.15,0,.32.08.44-.08l1-.18a17.14,17.14,0,0,0,2.42-.7c.13,0,.34,0,.39,0S157.56,250.39,157.62,250.68Z" transform="translate(-33.06 -36.17)"/><path class="cls-1" d="M163.27,243.71c.08.1.26.12.21.31s.12.13.18.19a3.57,3.57,0,0,0,.28.27,11.31,11.31,0,0,1-1.7,2.67,6,6,0,0,1-.8.86.32.32,0,0,1-.29-.22,2.27,2.27,0,0,0,.67-.71c-.24.22-.55.37-.67.71a.13.13,0,0,0-.15.15c0,.07-.08.07-.14.07h0c0-.2,0-.41-.23-.51l1-1.1A14.06,14.06,0,0,0,163.27,243.71Z" transform="translate(-33.06 -36.17)"/><path class="cls-1" d="M140,244.48A11.35,11.35,0,0,1,138.9,241a1.08,1.08,0,0,0,0-.64.5.5,0,0,1,.06-.55,3,3,0,0,1,.65-.57,6.14,6.14,0,0,0,.05.88c.08.59.25,1.16.31,1.76,0,.11.06.11.14.06l.48,1.4a1.9,1.9,0,0,0-.21.19.1.1,0,0,0,0,.16l.13.05c.07,0,0-.23.14-.06s0,.15,0,.23A2,2,0,0,1,140,244.48Z" transform="translate(-33.06 -36.17)"/><path class="cls-1" d="M148.54,251.48a7.74,7.74,0,0,1-2.2-.8,2.47,2.47,0,0,1,.51-.56c.07-.06.12-.11.21,0s.34.08.42.26a.16.16,0,0,0,.22.07c.19-.1.33,0,.49.07s.2.1.3,0l1.24.3a1.32,1.32,0,0,0,.58.15,9.56,9.56,0,0,0,1.35.09c-.42.41-.69.93-1.38.73-.32-.09-.68-.1-1-.2A1.63,1.63,0,0,0,148.54,251.48Z" transform="translate(-33.06 -36.17)"/><path class="cls-1" d="M160.86,248c.06,0,.11,0,.14-.07.2,0,.23.12.22.28a8.43,8.43,0,0,1-1.64,1.34c-.31-.15-.35.16-.49.29a5.21,5.21,0,0,1-1.47.83c-.06-.29-.31-.43-.51-.6s-.26,0-.39,0l1.26-.64a13.62,13.62,0,0,0,2.65-1.93c.24.1.21.31.23.51a1.9,1.9,0,0,0-.67.79C160.41,248.53,160.8,248.41,160.86,248Zm-1,1.16c.08,0,.08-.07.1-.12s0-.07,0-.05a.29.29,0,0,0-.1.09A.06.06,0,0,0,159.82,249.17Z" transform="translate(-33.06 -36.17)"/><path class="cls-1" d="M146.19,226.64a1.09,1.09,0,0,0,.75.68,14.4,14.4,0,0,0-3.67,2.51,1.19,1.19,0,0,1-.68-.66,13.31,13.31,0,0,1,2.43-1.93,1.63,1.63,0,0,1,.19-.09c.24.14.3-.08.4-.21A1.46,1.46,0,0,1,146.19,226.64Zm-2.72,2.44a.53.53,0,0,0-.39.39c.15-.11.34-.18.39-.39a.2.2,0,0,0,.22-.22c.43-.18.63-.6,1-.88,0-.14.23-.18.28-.37a.58.58,0,0,0-.35.29c-.2.19-.41.37-.6.57s-.28.2-.29.39S143.47,228.93,143.47,229.08Z" transform="translate(-33.06 -36.17)"/><path class="cls-1" d="M140.6,233.73a1.16,1.16,0,0,0-.67-.75,2.13,2.13,0,0,1,.38-.73,27.54,27.54,0,0,0,2.21-2.11l-.09-.1-1.75,1.72v-.17a9.76,9.76,0,0,1,1.83-2.31c.05.2.45.28.2.62.21-.19.33-.11.41.08l-.73.87A14.24,14.24,0,0,0,140.6,233.73Z" transform="translate(-33.06 -36.17)"/><path class="cls-1" d="M148.49,250.51c-.1.08-.2,0-.3,0s-.3-.17-.49-.07a.16.16,0,0,1-.22-.07c-.08-.18-.29-.16-.42-.26s-.14,0-.21,0a2.47,2.47,0,0,0-.51.56,5.37,5.37,0,0,1-1.25-.67c-.58-.64-1.2-1.24-1.8-1.85-.33-.33-.33-.36.05-.67a13.9,13.9,0,0,0,2.83,2A18.66,18.66,0,0,0,148.49,250.51Z" transform="translate(-33.06 -36.17)"/><path class="cls-1" d="M140,244.48a2,2,0,0,0,.57-.54c.06-.08.09-.14,0-.23s-.07.09-.14.06l-.13-.05a.1.1,0,0,1,0-.16,1.9,1.9,0,0,1,.21-.19,13.87,13.87,0,0,0,2.63,4,.63.63,0,0,1-.37.45h0c0-.15-.13-.22-.21-.32a9.16,9.16,0,0,1-.68-.71c-.27-.2-.43-.51-.69-.73a1.69,1.69,0,0,1-.57-.67c0-.08-.1,0-.16,0A5.1,5.1,0,0,1,140,244.48Z" transform="translate(-33.06 -36.17)"/><path class="cls-1" d="M164,233c-.27.1-.4.37-.63.52-.07.05,0,.15-.06.24-.25-.46-.46-.94-.72-1.4a15.77,15.77,0,0,0-1.71-2.28c.12-.32.12-.32.38-.17h0c.27.33.58.62.87.93s.78.72,1.12,1.14a.76.76,0,0,0,.37.29A2.32,2.32,0,0,1,164,233Z" transform="translate(-33.06 -36.17)"/><path class="cls-1" d="M157.24,227.4a.15.15,0,0,1,.07-.2,1.91,1.91,0,0,0,.52-.54,1.57,1.57,0,0,1,.53.27.78.78,0,0,0,.25.35c.55.53,1.09,1.09,1.65,1.63.24.24.49.46.74.69h0a.35.35,0,0,1-.31.23,13.87,13.87,0,0,0-2.28-1.76Z" transform="translate(-33.06 -36.17)"/><path class="cls-1" d="M153.5,225.4c-.25,0-.46.14-.45.44,0,.07,0,.07-.06.07-.2,0-.27.17-.45.3a11.62,11.62,0,0,1,2.08.23.73.73,0,0,1,.49.21l-.18,0a12.78,12.78,0,0,0-2.38-.35,19.65,19.65,0,0,0-2.3.09,1.15,1.15,0,0,1,.62-.16.65.65,0,0,0,.44-.1,2.38,2.38,0,0,1-.49-.56.34.34,0,0,0-.3-.16A9.61,9.61,0,0,1,153.5,225.4Z" transform="translate(-33.06 -36.17)"/><path class="cls-1" d="M140.07,242c-.08.05-.13.05-.14-.06-.06-.6-.23-1.17-.31-1.76a6.14,6.14,0,0,1-.05-.88,3,3,0,0,0-.65.57.5.5,0,0,0-.06.55,1.08,1.08,0,0,1,0,.64,10.66,10.66,0,0,1-.23-3,6.15,6.15,0,0,1,.15-1.41,1.64,1.64,0,0,1,0,.66.29.29,0,0,0,.09.33,4.78,4.78,0,0,0,.7.61c0-.2,0-.41,0-.62a1.69,1.69,0,0,1,.16-.8c0,.35-.06.71-.08,1.06A13.1,13.1,0,0,0,140.07,242Z" transform="translate(-33.06 -36.17)"/><path class="cls-1" d="M148.54,251.48a1.63,1.63,0,0,1,.75.1c.31.1.67.11,1,.2.69.2,1-.32,1.38-.73a9.56,9.56,0,0,1-1.35-.09,1.32,1.32,0,0,1-.58-.15c.5,0,1,.12,1.49.16.68,0,1.36,0,2,0-.12.16-.29.06-.44.08a2.49,2.49,0,0,0-.49.06c.25.24.45.56.75.69a1.45,1.45,0,0,0,.84-.05,16.94,16.94,0,0,0,2-.47.81.81,0,0,1,.22,0,9.24,9.24,0,0,1-2.26.56,13.23,13.23,0,0,1-5.24-.28A.67.67,0,0,1,148.54,251.48Z" transform="translate(-33.06 -36.17)"/><path class="cls-1" d="M165,241.49a.86.86,0,0,1,0-.57c.08-.29,0-.61.13-.91,0-.08,0-.14-.09-.18a7.59,7.59,0,0,0-.66-.6c-.09.17.06.39-.11.53v-2.13c.17.18,0,.42.13.64a8.57,8.57,0,0,1,.69-.66.16.16,0,0,0,0-.23c-.18-.26-.08-.53-.05-.8a8.06,8.06,0,0,1,.19,2.08,12.53,12.53,0,0,1-.28,2.73A.31.31,0,0,1,165,241.49Z" transform="translate(-33.06 -36.17)"/><path class="cls-1" d="M163.66,232.25a.76.76,0,0,1-.37-.29c.13-.11,0-.17,0-.23L161.52,230a.33.33,0,0,0-.22-.11h0c0-.13-.12-.19-.15-.3l.07-.06c.14,0,.2-.21.36-.15A10.34,10.34,0,0,1,163.66,232.25Z" transform="translate(-33.06 -36.17)"/><path class="cls-1" d="M161.22,229.53l-.07.06H161c0-.15-.1-.22-.19-.3-.36-.37-.72-.73-1.09-1.09l-.74-.75c-.08-.08-.11-.14,0-.15a11.09,11.09,0,0,1,2.35,1.85C161.38,229.31,161.2,229.38,161.22,229.53Z" transform="translate(-33.06 -36.17)"/><path class="cls-1" d="M140.5,245.37c.06,0,.13-.09.16,0a1.69,1.69,0,0,0,.57.67c.26.22.42.53.69.73-.09,0-.14,0,0,.12a11.56,11.56,0,0,0,.94.91h0c-.06.12-.14.22-.28.22A10.87,10.87,0,0,1,140.5,245.37Z" transform="translate(-33.06 -36.17)"/><path class="cls-1" d="M144.4,249.57a9,9,0,0,1-1.66-1.35c.07-.31.12-.34.29-.17.47.46.92.93,1.39,1.39C144.47,249.49,144.49,249.54,144.4,249.57Z" transform="translate(-33.06 -36.17)"/><path class="cls-1" d="M159,227.31c-.15,0-.12.07,0,.15l.74.75c.37.36.73.72,1.09,1.09.09.08.2.15.19.3-.25-.23-.5-.45-.74-.69-.56-.54-1.1-1.1-1.65-1.63a.78.78,0,0,1-.25-.35A2.18,2.18,0,0,1,159,227.31Z" transform="translate(-33.06 -36.17)"/><path class="cls-1" d="M140.67,231.59v.17l1.75-1.72.09.1a27.54,27.54,0,0,1-2.21,2.11A1.85,1.85,0,0,1,140.67,231.59Z" transform="translate(-33.06 -36.17)"/><path class="cls-1" d="M144.4,249.57c.09,0,.07-.08,0-.13-.47-.46-.92-.93-1.39-1.39-.17-.17-.22-.14-.29.17a.6.6,0,0,1-.21-.21c.14,0,.22-.1.28-.22a.63.63,0,0,0,.37-.45c.08,0,.12.09.16.15-.38.31-.38.34-.05.67.6.61,1.22,1.21,1.8,1.85A2.53,2.53,0,0,1,144.4,249.57Z" transform="translate(-33.06 -36.17)"/><path class="cls-1" d="M143.11,230c-.08-.19-.2-.27-.41-.08.25-.34-.15-.42-.2-.62a.13.13,0,0,1,.09-.11,1.19,1.19,0,0,0,.68.66A.24.24,0,0,1,143.11,230Z" transform="translate(-33.06 -36.17)"/><path class="cls-1" d="M159.09,249.85c.14-.13.18-.44.49-.29A.76.76,0,0,1,159.09,249.85Z" transform="translate(-33.06 -36.17)"/><path class="cls-1" d="M161.22,248.22c0-.16,0-.28-.22-.28a.13.13,0,0,1,.15-.15h0a.32.32,0,0,0,.29.22A.41.41,0,0,1,161.22,248.22Z" transform="translate(-33.06 -36.17)"/><path class="cls-1" d="M161.22,229.53c0-.15.16-.22.15-.37a.63.63,0,0,1,.21.22C161.42,229.32,161.36,229.53,161.22,229.53Z" transform="translate(-33.06 -36.17)"/><path class="cls-1" d="M145.61,226.94c-.1.13-.16.35-.4.21A.81.81,0,0,1,145.61,226.94Z" transform="translate(-33.06 -36.17)"/><path class="cls-1" d="M161.15,247.79c.12-.34.43-.49.67-.71a2.27,2.27,0,0,1-.67.71Z" transform="translate(-33.06 -36.17)"/><path class="cls-1" d="M160.86,248c-.06.4-.45.52-.67.79a1.9,1.9,0,0,1,.67-.79Z" transform="translate(-33.06 -36.17)"/><path class="cls-1" d="M159.82,249.17a.06.06,0,0,1,0-.08.29.29,0,0,1,.1-.09s.07,0,0,.05S159.9,249.17,159.82,249.17Z" transform="translate(-33.06 -36.17)"/><path class="cls-1" d="M143.69,228.86c0-.19.18-.28.29-.39s.4-.38.6-.57l.07.08c-.33.28-.53.7-1,.88Z" transform="translate(-33.06 -36.17)"/><path class="cls-1" d="M143.47,229.08c-.05.21-.24.28-.39.39a.53.53,0,0,1,.39-.39Z" transform="translate(-33.06 -36.17)"/><path class="cls-1" d="M144.65,228l-.07-.08a.58.58,0,0,1,.35-.29C144.88,227.8,144.69,227.84,144.65,228Z" transform="translate(-33.06 -36.17)"/><path class="cls-1" d="M143.47,229.08c0-.15.13-.16.22-.22h0a.2.2,0,0,1-.22.22Z" transform="translate(-33.06 -36.17)"/><path class="cls-1" d="M142.81,247.79a11.56,11.56,0,0,1-.94-.91c-.09-.08,0-.11,0-.12a9.16,9.16,0,0,0,.68.71C142.68,247.57,142.81,247.64,142.81,247.79Z" transform="translate(-33.06 -36.17)"/><path class="cls-1" d="M161.3,229.89a.33.33,0,0,1,.22.11l1.72,1.73c.06.06.18.12,0,.23-.34-.42-.76-.75-1.12-1.14S161.57,230.22,161.3,229.89Z" transform="translate(-33.06 -36.17)"/><path class="cls-1" d="M160.92,230.06a.84.84,0,0,1-.23-.23.35.35,0,0,0,.31-.23h.15c0,.11.16.17.15.3C161,229.74,161,229.74,160.92,230.06Z" transform="translate(-33.06 -36.17)"/><path class="cls-1" d="M149.22,237.18a6.34,6.34,0,0,1-.82-.57c-.05-.35.32-.41.44-.63s.26,0,.39,0c.77.47,1.5,1,2.25,1.51l.63.42c.28-.67.43-1.36.71-2,.27-.22.24-.57.37-.84a.53.53,0,0,0,0-.13c.32.06.19-.15.16-.27s0-.22.06-.35c.11.12.25.17.32.29s.14.18.05.26,0,.27,0,.41c-.25.93-.6,1.83-.89,2.75a.48.48,0,0,0,0,.45c0,.35-.22.66-.21,1l-.1,0c-.09,0-.18-.08-.22.08a4.51,4.51,0,0,1-.17.52c-.11.3-.17.33-.49.22s-.34-.16-.23-.49c.05-.16.11-.32.16-.49.12-.4.12-.39-.24-.64l-1.79-1.22-.17-.13c.07-.18.27-.21.45-.37C149.6,237,149.44,237.17,149.22,237.18Zm3.27,1.51c-.45.21-.44.72-.75,1.05.17,0,.27,0,.29-.12A4,4,0,0,1,152.49,238.69Z" transform="translate(-33.06 -36.17)"/><path class="cls-1" d="M153.79,235.23c0-.14-.13-.27,0-.41s0-.18-.05-.26-.21-.17-.32-.29c0,.13-.1.21-.06.35s.16.33-.16.27a.53.53,0,0,1,0,.13c-.13.27-.1.62-.37.84.21-.82.52-1.6.78-2.4.35-1.09.72-2.18,1.09-3.27a.88.88,0,0,1,.13-.3c.17-.1.32-.1.43.08a.54.54,0,0,0,.23.22c-.2.77-.48,1.51-.73,2.26C154.44,233.38,154.16,234.32,153.79,235.23Z" transform="translate(-33.06 -36.17)"/><path class="cls-1" d="M149.23,235.93c-.13,0-.28-.14-.39,0s-.49.28-.44.63c-.68-.4-1.31-.88-2-1.33a.53.53,0,0,1-.2-.76.55.55,0,0,1,.81-.11C147.77,234.9,148.52,235.38,149.23,235.93Z" transform="translate(-33.06 -36.17)"/><path class="cls-1" d="M152.38,227.68c0,.25,0,.51,0,.77s-.11.32-.38.33-.41-.05-.41-.31c0-.54,0-1.08,0-1.62,0-.28.18-.29.4-.29s.4,0,.39.31Z" transform="translate(-33.06 -36.17)"/><path class="cls-1" d="M152.38,249.57c0,.27,0,.54,0,.81s-.12.32-.39.32-.4-.08-.4-.31c0-.54,0-1.08,0-1.62,0-.28.21-.29.42-.28s.36.06.36.3v.78Z" transform="translate(-33.06 -36.17)"/><path class="cls-1" d="M164,238.73c0,.21-.1.29-.28.29h-1.61c-.28,0-.33-.14-.26-.58.07-.05.15-.13.22-.13.64.05,1.36-.29,1.87.39C164,238.72,164,238.72,164,238.73Z" transform="translate(-33.06 -36.17)"/><path class="cls-1" d="M142,238.28c.23.2.24.4,0,.67h-1.69a.22.22,0,0,1-.26-.14c-.06-.13,0-.18.1-.25a.64.64,0,0,1,.6-.27C141.15,238.31,141.55,238.28,142,238.28Z" transform="translate(-33.06 -36.17)"/><path class="cls-1" d="M143.91,233.69c0,.28-.25.43-.44.32-.36-.2-.7-.41-1.06-.6s-.18-.22-.08-.4.18-.17.34-.08c.35.22.71.43,1.08.64C143.82,233.61,143.9,233.64,143.91,233.69Z" transform="translate(-33.06 -36.17)"/><path class="cls-1" d="M161.48,232.85c.14.05.16.2.24.31s0,.15-.08.2l-1.23.71c-.15.09-.2,0-.24-.13s-.23-.19,0-.3c.42-.27.86-.51,1.29-.76Z" transform="translate(-33.06 -36.17)"/><path class="cls-1" d="M146.58,248.39a.31.31,0,0,1-.27-.47c.2-.35.43-.7.62-1.07.1-.21.21-.14.34-.06s.25.12.12.32c-.23.37-.44.76-.66,1.14C146.7,248.31,146.67,248.39,146.58,248.39Z" transform="translate(-33.06 -36.17)"/><path class="cls-1" d="M156.92,230.55c-.27,0-.43-.25-.32-.44.2-.36.43-.71.61-1.08.11-.21.22-.15.37-.07s.23.14.11.33c-.23.35-.44.73-.65,1.1C157,230.46,157,230.54,156.92,230.55Z" transform="translate(-33.06 -36.17)"/><path class="cls-1" d="M161.74,244.05a.3.3,0,0,1-.47.24c-.35-.2-.69-.41-1-.6-.2-.1-.16-.21-.08-.37s.18-.19.34-.09c.36.22.74.43,1.1.64C161.66,243.91,161.76,243.93,161.74,244.05Z" transform="translate(-33.06 -36.17)"/><path class="cls-1" d="M156.49,247l0-.06c.38-.24.38-.24.61.15s.35.64.55,1,0,.24-.15.32-.22.12-.32-.06C157,247.81,156.74,247.39,156.49,247Z" transform="translate(-33.06 -36.17)"/><path class="cls-1" d="M143.9,243.5c0,.09,0,.12-.09.15l-1.23.71c-.21.13-.21-.09-.27-.17s-.16-.2,0-.29c.4-.23.8-.47,1.2-.69C143.67,243.13,143.89,243.32,143.9,243.5Z" transform="translate(-33.06 -36.17)"/><path class="cls-1" d="M147.1,230.55c-.06,0-.1,0-.13-.09-.24-.41-.48-.83-.73-1.24-.09-.16,0-.19.13-.23s.21-.24.33,0c.25.41.48.83.72,1.24C147.48,230.32,147.29,230.53,147.1,230.55Z" transform="translate(-33.06 -36.17)"/><path class="cls-1" d="M162.51,235.61c.11,0,.16,0,.18.13s0,.2-.1.24l-.81.23c-.12,0-.15-.06-.17-.15s-.06-.19.09-.23Z" transform="translate(-33.06 -36.17)"/><path class="cls-1" d="M142,238.28c-.41,0-.81,0-1.21,0a.64.64,0,0,0-.6.27c-.06.07-.16.12-.1.25a.22.22,0,0,0,.26.14H142c-.05.1-.15.08-.23.08H140.3c-.33,0-.39-.09-.38-.43s.05-.37.4-.37h1.36C141.77,238.23,141.87,238.2,142,238.28Z" transform="translate(-33.06 -36.17)"/><path class="cls-1" d="M149,228.11a.15.15,0,0,1,.12-.19c.11,0,.2,0,.24.09s.15.54.23.81,0,.16-.12.18-.21.06-.25-.08S149.05,228.38,149,228.11Z" transform="translate(-33.06 -36.17)"/><path class="cls-1" d="M155.48,230.19a.54.54,0,0,1-.23-.22c-.11-.18-.26-.18-.43-.08a2.41,2.41,0,0,1,.17-.58c.11-.37.2-.41.55-.27.06,0,.14,0,.17.11-.29,0-.3.4-.58.45a1.3,1.3,0,0,0,.06.12l.35.32C155.55,230.1,155.51,230.14,155.48,230.19Z" transform="translate(-33.06 -36.17)"/><path class="cls-1" d="M152.59,239.48l.1,0c0-.35.2-.66.21-1,.54.31.54.32.18.84C153,239.43,152.87,239.7,152.59,239.48Z" transform="translate(-33.06 -36.17)"/><path class="cls-1" d="M149.56,248.38l-.22.86c0,.13-.13.11-.23.1s-.17-.09-.13-.21l.21-.78c0-.11.08-.14.18-.1S149.58,248.27,149.56,248.38Z" transform="translate(-33.06 -36.17)"/><path class="cls-1" d="M142.37,236c0,.09,0,.26-.23.19s-.49-.14-.74-.2a.16.16,0,0,1-.13-.22c0-.09,0-.19.19-.15l.82.22C142.35,235.85,142.38,235.89,142.37,236Z" transform="translate(-33.06 -36.17)"/><path class="cls-1" d="M142.37,241.29c0,.11-.07.13-.16.16s-.47.1-.7.17-.2,0-.24-.12,0-.2.14-.23l.7-.19C142.29,241,142.36,241.12,142.37,241.29Z" transform="translate(-33.06 -36.17)"/><path class="cls-1" d="M155,228.09c-.08.29-.15.55-.21.81s-.12.13-.23.1-.17-.08-.13-.2.15-.52.21-.78.11-.13.22-.1S155.05,228,155,228.09Z" transform="translate(-33.06 -36.17)"/><path class="cls-1" d="M161.84,241.07c.25.07.49.15.74.21s.14.13.11.25-.1.13-.22.1-.47-.12-.7-.18-.2-.07-.16-.22S161.7,241,161.84,241.07Z" transform="translate(-33.06 -36.17)"/><path class="cls-1" d="M159.91,246.32c0,.1-.08.12-.12.17a.13.13,0,0,1-.2,0l-.59-.6c-.11-.11,0-.17,0-.24s.14-.11.22,0l.6.61S159.89,246.3,159.91,246.32Z" transform="translate(-33.06 -36.17)"/><path class="cls-1" d="M154.66,248.24c.11,0,.12.08.14.16s.11.47.18.71,0,.2-.13.23-.19,0-.23-.15a6.06,6.06,0,0,0-.19-.7C154.37,248.29,154.51,248.27,154.66,248.24Z" transform="translate(-33.06 -36.17)"/><path class="cls-1" d="M145,231.44a.34.34,0,0,1-.17.2c-.06.05-.11,0-.16,0l-.59-.6c-.08-.09,0-.15,0-.22s.12-.13.21,0l.62.62S145,231.42,145,231.44Z" transform="translate(-33.06 -36.17)"/><path class="cls-1" d="M159.18,231.66c-.1,0-.15-.08-.21-.14s0-.14,0-.19l.57-.57c.08-.07.15-.09.22,0s.17.14.06.25l-.59.6Z" transform="translate(-33.06 -36.17)"/><path class="cls-1" d="M144.29,246.54a.29.29,0,0,1-.2-.14c-.08-.07,0-.13,0-.18l.57-.57c.07-.08.14-.1.21,0s.17.14.07.25-.41.41-.62.62C144.34,246.53,144.32,246.53,144.29,246.54Z" transform="translate(-33.06 -36.17)"/><path class="cls-1" d="M155.54,230l-.35-.32a1.3,1.3,0,0,1-.06-.12c.28,0,.29-.41.58-.45.12.08.07.19,0,.29S155.61,229.84,155.54,230Z" transform="translate(-33.06 -36.17)"/><path class="cls-1" d="M164,238.73s-.05,0-.06,0c-.51-.68-1.23-.34-1.87-.39-.07,0-.15.08-.22.13,0-.23.2-.21.35-.21h1.38C164,238.23,164.08,238.29,164,238.73Z" transform="translate(-33.06 -36.17)"/><path class="cls-1" d="M149.22,237.18c.22,0,.38-.2.67-.22-.18.16-.38.19-.45.37A.46.46,0,0,1,149.22,237.18Z" transform="translate(-33.06 -36.17)"/><path class="cls-1" d="M152.49,238.69a4,4,0,0,0-.46.93c0,.08-.12.16-.29.12C152.05,239.41,152,238.9,152.49,238.69Z" transform="translate(-33.06 -36.17)"/></g></svg>